<svg width="1179" height="549" viewBox="0 0 1179 549" fill="none" xmlns="http://www.w3.org/2000/svg">
<path d="M900.524 0.251935C899.164 0.395196 893.222 0.896609 887.28 1.32639C861.008 3.26041 822.852 10.3518 794.217 18.5893C776.463 23.6751 752.195 31.841 736.946 37.7863C733.797 39.004 729.645 40.6515 727.64 41.3678C725.707 42.0841 721.34 43.8749 717.976 45.3075C714.611 46.7401 710.745 48.316 709.385 48.889C708.025 49.3904 704.303 50.9663 701.153 52.4705C698.003 53.9031 694.28 55.5506 692.849 56.0521C686.334 58.4159 659.775 72.1689 642.093 82.3404C633.502 87.2829 616.107 97.9559 603.078 106.193C582.389 119.302 578.953 121.379 559.624 132.983C537.289 146.378 528.627 151.392 519.32 156.335C515.812 158.269 510.157 161.277 506.792 163.14C499.49 167.151 465.844 183.984 457.755 187.637C439.715 195.803 434.775 198.024 426.972 201.247C411.08 207.837 394.543 214.212 386.525 216.862C384.378 217.579 377.792 219.871 371.85 221.877C324.817 237.922 268.406 250.027 228.317 252.749C214.5 253.68 182.071 253.251 171.405 251.961C126.877 246.732 90.7969 233.194 60.3006 210.272C41.9742 196.519 25.7954 179.113 13.1244 159.558C6.25199 149.028 1.09768 141.65 0.524981 141.65C-0.33407 141.65 -0.119307 148.24 1.02609 155.833C1.52721 159.63 2.52943 167.796 3.17372 173.884C9.75978 237.205 20.3547 285.269 37.9653 331.113C63.3073 397.156 103.683 453.529 150.644 488.413C194.456 521.005 243.35 538.841 304.915 544.787C322.311 546.434 361.684 546.434 380.798 544.715C426.4 540.704 475.079 530.461 524.689 514.487C537.575 510.332 566.21 500.447 569.074 499.158C570.076 498.728 576.018 496.508 582.317 494.144C593.915 489.918 597.637 488.413 627.775 476.523C709.099 444.361 768.588 424.591 826.073 410.623C831.8 409.262 839.03 407.471 842.18 406.683C862.726 401.597 897.231 395.652 920.211 393.288C937.392 391.497 975.834 391.497 988.863 393.288C1027.74 398.589 1055.44 414.491 1068.76 439.132C1076.56 453.529 1079.42 470.649 1077.99 493.284C1076.99 509.903 1074.84 521.507 1070.19 535.976C1067.75 543.426 1066.61 548.297 1067.11 548.798C1068.4 550.016 1072.62 545.933 1085.51 530.962C1132.32 476.666 1160.39 420.938 1173.92 355.467C1175.78 346.299 1176.57 340.353 1177.93 325.526C1179.36 309.767 1179.36 279.253 1177.93 268.651C1177.35 264.282 1176.57 257.047 1176.14 252.606C1171.41 204.757 1149.72 144.945 1121.37 101.896C1112.49 88.429 1104.69 78.7589 1093.45 67.298C1069.9 43.1586 1046.2 27.9013 1012.2 14.9362C997.167 9.27736 973.472 3.83344 953.857 1.54126C944.55 0.466807 906.895 -0.46437 900.524 0.251935ZM993.588 93.658C1008.34 95.0907 1027.38 100.964 1041.55 108.486C1071.48 124.387 1095.24 152.968 1110.99 192.15C1115.36 203.038 1115.86 204.327 1117.65 210.058C1128.46 243.867 1132.75 280.47 1130.32 318.219C1129.1 337.416 1126.96 351.957 1120.66 383.403C1118.58 394.005 1116.36 405.465 1115.72 408.832C1114.07 417.714 1112.28 422.084 1110.2 422.084C1108.77 422.084 1108.13 421.009 1105.26 413.846C1094.81 387.486 1081 369.435 1061.1 355.969C1024.44 331.185 964.595 324.595 884.059 336.485C859.862 340.067 860.865 339.995 859.934 338.777C859.433 338.133 859.003 337.416 859.003 337.202C859.003 336.199 883.128 318.649 895.871 310.412C900.596 307.332 905.464 304.108 906.609 303.32C910.976 300.24 931.307 288.923 942.761 283.264C954.143 277.533 970.537 270.37 979.843 267.004C982.277 266.144 984.282 265.141 984.282 264.783C984.282 264.497 967.816 249.812 947.7 232.191C927.656 214.57 911.405 199.958 911.763 199.671C912.909 198.525 937.535 191.935 952.783 188.64C972.183 184.414 990.653 181.978 1018.86 179.901C1022.87 179.615 1024.37 179.256 1024.37 178.54C1024.37 177.394 1018.93 164.429 1015.57 157.409C1006.26 138.141 991.082 116.293 975.763 99.9615C972.398 96.3084 970.895 94.2311 971.539 94.0162C974.617 92.9417 984.854 92.7985 993.588 93.658Z" fill="black"/>
<path d="M993.588 93.658C1008.34 95.0907 1027.38 100.964 1041.55 108.486C1071.48 124.387 1095.24 152.968 1110.99 192.15C1115.36 203.038 1115.86 204.327 1117.65 210.058C1128.46 243.867 1132.75 280.47 1130.32 318.219C1129.1 337.416 1126.96 351.957 1120.66 383.403C1118.58 394.005 1116.36 405.465 1115.72 408.832C1114.07 417.714 1112.28 422.084 1110.2 422.084C1108.77 422.084 1108.13 421.009 1105.26 413.846C1094.81 387.486 1081 369.435 1061.1 355.969C1024.44 331.185 964.595 324.595 884.059 336.485C859.862 340.067 860.865 339.995 859.934 338.777C859.433 338.133 859.003 337.416 859.003 337.202C859.003 336.199 883.128 318.649 895.871 310.412C900.596 307.332 905.464 304.108 906.609 303.32C910.976 300.24 931.307 288.923 942.761 283.264C954.143 277.533 970.537 270.37 979.843 267.004C982.277 266.144 984.282 265.141 984.282 264.783C984.282 264.497 967.816 249.812 947.7 232.191C927.656 214.57 911.405 199.958 911.763 199.671C912.909 198.525 937.535 191.935 952.783 188.64C972.183 184.414 990.653 181.978 1018.86 179.901C1022.87 179.615 1024.37 179.256 1024.37 178.54C1024.37 177.394 1018.93 164.429 1015.57 157.409C1006.26 138.141 991.082 116.293 975.763 99.9615C972.398 96.3084 970.895 94.2311 971.539 94.0162C974.617 92.9417 984.854 92.7985 993.588 93.658Z" fill="black"/>
<path d="M993.588 93.658C1008.34 95.0907 1027.38 100.964 1041.55 108.486C1071.48 124.387 1095.24 152.968 1110.99 192.15C1115.36 203.038 1115.86 204.327 1117.65 210.058C1128.46 243.867 1132.75 280.47 1130.32 318.219C1129.1 337.416 1126.96 351.957 1120.66 383.403C1118.58 394.005 1116.36 405.465 1115.72 408.832C1114.07 417.714 1112.28 422.084 1110.2 422.084C1108.77 422.084 1108.13 421.009 1105.26 413.846C1094.81 387.486 1081 369.435 1061.1 355.969C1024.44 331.185 964.595 324.595 884.059 336.485C859.862 340.067 860.865 339.995 859.934 338.777C859.433 338.133 859.003 337.416 859.003 337.202C859.003 336.199 883.128 318.649 895.871 310.412C900.596 307.332 905.464 304.108 906.609 303.32C910.976 300.24 931.307 288.923 942.761 283.264C954.143 277.533 970.537 270.37 979.843 267.004C982.277 266.144 984.282 265.141 984.282 264.783C984.282 264.497 967.816 249.812 947.7 232.191C927.656 214.57 911.405 199.958 911.763 199.671C912.909 198.525 937.535 191.935 952.783 188.64C972.183 184.414 990.653 181.978 1018.86 179.901C1022.87 179.615 1024.37 179.256 1024.37 178.54C1024.37 177.394 1018.93 164.429 1015.57 157.409C1006.26 138.141 991.082 116.293 975.763 99.9615C972.398 96.3084 970.895 94.2311 971.539 94.0162C974.617 92.9417 984.854 92.7985 993.588 93.658Z" fill="white"/>
</svg>
