<svg width="3114" height="413" viewBox="0 0 3114 413" fill="none" xmlns="http://www.w3.org/2000/svg">
<path d="M108.711 403.956H0V9.31785H283.141V59.7439H108.711V181.698H243.435V231.85H108.711V403.956Z" fill="black"/>
<path d="M745.093 206.089C745.093 237.879 739.616 266.564 728.663 292.142C717.71 317.538 702.558 339.097 683.207 356.819C663.856 374.541 640.946 388.152 614.476 397.653C588.005 407.154 559.344 411.904 528.493 411.904C497.641 411.904 468.98 407.154 442.51 397.653C416.04 388.152 393.129 374.541 373.779 356.819C354.428 339.097 339.276 317.538 328.323 292.142C317.369 266.564 311.893 237.879 311.893 206.089C311.893 173.75 317.278 144.883 328.049 119.488C339.002 93.9093 354.063 72.3504 373.231 54.8109C392.582 37.0887 415.492 23.5687 441.962 14.2508C468.433 4.75028 497.276 0 528.493 0C559.709 0 588.553 4.75028 615.023 14.2508C641.493 23.5687 664.313 37.0887 683.481 54.8109C702.831 72.3504 717.892 93.9093 728.663 119.488C739.616 144.883 745.093 173.75 745.093 206.089ZM634.465 206.089C634.465 194.031 633.917 181.698 632.822 169.092C631.727 156.485 629.719 144.244 626.798 132.368C623.877 120.493 619.861 109.348 614.749 98.9336C609.82 88.5196 603.431 79.4758 595.581 71.8023C587.731 63.946 578.239 57.8255 567.103 53.4406C556.15 48.873 543.28 46.5893 528.493 46.5893C513.523 46.5893 500.471 48.873 489.335 53.4406C478.199 57.8255 468.706 63.8547 460.857 71.5282C453.007 79.2017 446.617 88.2455 441.689 98.6596C436.76 109.074 432.835 120.219 429.914 132.094C427.176 143.787 425.259 156.028 424.163 168.818C423.068 181.424 422.52 193.848 422.52 206.089C422.52 218.147 423.068 230.48 424.163 243.086C425.259 255.693 427.267 267.934 430.188 279.81C433.108 291.503 437.033 302.556 441.962 312.97C447.074 323.384 453.555 332.519 461.404 340.376C469.254 348.049 478.656 354.17 489.609 358.737C500.745 363.305 513.706 365.589 528.493 365.589C542.915 365.589 555.511 363.305 566.281 358.737C577.052 353.987 586.362 347.684 594.212 339.827C602.062 331.789 608.543 322.562 613.654 312.148C618.948 301.551 623.056 290.406 625.976 278.713C629.08 266.838 631.27 254.688 632.548 242.264C633.826 229.84 634.465 217.782 634.465 206.089Z" fill="black"/>
<path d="M1131.47 403.956H1020.57L928.011 265.559L833.266 403.956H756.594L898.985 222.532L756.594 9.31785H867.495L957.037 143.33L1054.79 9.31785H1131.47L986.063 186.631L1131.47 403.956Z" fill="black"/>
<path d="M1287.28 403.956H1178.57V9.31785H1391.61C1410.04 9.31785 1427.66 11.7843 1444.46 16.7173C1461.43 21.6503 1476.4 29.1411 1489.36 39.1898C1502.33 49.0557 1512.64 61.5709 1520.31 76.7352C1528.16 91.7169 1532.08 109.348 1532.08 129.628C1532.08 142.417 1530.26 154.475 1526.6 165.803C1522.95 176.948 1517.84 187.179 1511.27 196.497C1504.88 205.815 1497.3 214.219 1488.54 221.71C1479.78 229.201 1470.2 235.504 1459.79 240.62C1449.38 245.735 1438.34 249.664 1426.66 252.404C1415.16 255.145 1403.47 256.515 1391.61 256.515H1287.28V403.956ZM1422 129.628C1422 104.232 1415.52 84.3174 1402.56 69.8839C1389.78 55.2676 1370.43 47.9595 1344.51 47.9595H1287.28V219.244H1344.51C1358.38 219.244 1370.16 217.051 1379.83 212.666C1389.69 208.099 1397.72 201.795 1403.93 193.756C1410.14 185.718 1414.7 176.308 1417.62 165.529C1420.54 154.567 1422 142.6 1422 129.628Z" fill="black"/>
<path d="M2000.33 206.089C2000.33 237.879 1994.85 266.564 1983.9 292.142C1972.95 317.538 1957.8 339.097 1938.45 356.819C1919.1 374.541 1896.18 388.152 1869.71 397.653C1843.24 407.154 1814.58 411.904 1783.73 411.904C1752.88 411.904 1724.22 407.154 1697.75 397.653C1671.28 388.152 1648.37 374.541 1629.02 356.819C1609.67 339.097 1594.51 317.538 1583.56 292.142C1572.61 266.564 1567.13 237.879 1567.13 206.089C1567.13 173.75 1572.52 144.883 1583.29 119.488C1594.24 93.9093 1609.3 72.3504 1628.47 54.8109C1647.82 37.0887 1670.73 23.5687 1697.2 14.2508C1723.67 4.75028 1752.51 0 1783.73 0C1814.95 0 1843.79 4.75028 1870.26 14.2508C1896.73 23.5687 1919.55 37.0887 1938.72 54.8109C1958.07 72.3504 1973.13 93.9093 1983.9 119.488C1994.85 144.883 2000.33 173.75 2000.33 206.089ZM1889.7 206.089C1889.7 194.031 1889.16 181.698 1888.06 169.092C1886.97 156.485 1884.96 144.244 1882.04 132.368C1879.12 120.493 1875.1 109.348 1869.99 98.9336C1865.06 88.5196 1858.67 79.4758 1850.82 71.8023C1842.97 63.946 1833.48 57.8255 1822.34 53.4406C1811.39 48.873 1798.52 46.5893 1783.73 46.5893C1768.76 46.5893 1755.71 48.873 1744.57 53.4406C1733.44 57.8255 1723.95 63.8547 1716.1 71.5282C1708.25 79.2017 1701.86 88.2455 1696.93 98.6596C1692 109.074 1688.07 120.219 1685.15 132.094C1682.41 143.787 1680.5 156.028 1679.4 168.818C1678.31 181.424 1677.76 193.848 1677.76 206.089C1677.76 218.147 1678.31 230.48 1679.4 243.086C1680.5 255.693 1682.51 267.934 1685.43 279.81C1688.35 291.503 1692.27 302.556 1697.2 312.97C1702.31 323.384 1708.79 332.519 1716.64 340.376C1724.49 348.049 1733.89 354.17 1744.85 358.737C1755.98 363.305 1768.94 365.589 1783.73 365.589C1798.15 365.589 1810.75 363.305 1821.52 358.737C1832.29 353.987 1841.6 347.684 1849.45 339.827C1857.3 331.789 1863.78 322.562 1868.89 312.148C1874.19 301.551 1878.29 290.406 1881.22 278.713C1884.32 266.838 1886.51 254.688 1887.79 242.264C1889.07 229.84 1889.7 217.782 1889.7 206.089Z" fill="black"/>
<path d="M2176.68 403.956H2067.97V9.31785H2176.68V403.956Z" fill="black"/>
<path d="M2316.61 403.956H2266.22V9.31785H2336.87L2576.47 280.358V9.31785H2626.58V403.956H2555.93L2316.61 133.19V403.956Z" fill="black"/>
<path d="M2898.22 403.956H2789.51V59.7439H2682.17V9.31785H3005.56V59.7439H2898.22V403.956Z" fill="black"/>
<path d="M3114 362.848C3114 369.791 3112.72 376.368 3110.17 382.58C3107.61 388.609 3104.05 393.908 3099.49 398.475C3094.92 402.86 3089.63 406.331 3083.6 408.889C3077.58 411.63 3071.1 413 3064.16 413C3057.23 413 3050.75 411.63 3044.72 408.889C3038.7 406.331 3033.4 402.86 3028.84 398.475C3024.27 393.908 3020.71 388.609 3018.16 382.58C3015.6 376.368 3014.33 369.791 3014.33 362.848C3014.33 356.088 3015.6 349.693 3018.16 343.664C3020.71 337.452 3024.27 332.154 3028.84 327.769C3033.4 323.202 3038.7 319.639 3044.72 317.081C3050.75 314.34 3057.23 312.97 3064.16 312.97C3071.1 312.97 3077.58 314.34 3083.6 317.081C3089.63 319.639 3094.92 323.202 3099.49 327.769C3104.05 332.154 3107.61 337.452 3110.17 343.664C3112.72 349.693 3114 356.088 3114 362.848Z" fill="black"/>
</svg>
