<svg width="4502" height="549" viewBox="0 0 4502 549" fill="none" xmlns="http://www.w3.org/2000/svg">
<path d="M900.524 0.251935C899.164 0.395196 893.222 0.896609 887.28 1.32639C861.008 3.26041 822.852 10.3518 794.217 18.5893C776.463 23.6751 752.195 31.841 736.946 37.7863C733.797 39.004 729.645 40.6515 727.64 41.3678C725.707 42.0841 721.34 43.8749 717.976 45.3075C714.611 46.7401 710.745 48.316 709.385 48.889C708.025 49.3904 704.303 50.9663 701.153 52.4705C698.003 53.9031 694.28 55.5506 692.849 56.0521C686.334 58.4159 659.775 72.1689 642.093 82.3404C633.502 87.2829 616.107 97.9559 603.078 106.193C582.389 119.302 578.953 121.379 559.624 132.983C537.289 146.378 528.627 151.392 519.32 156.335C515.812 158.269 510.157 161.277 506.792 163.14C499.49 167.151 465.844 183.984 457.755 187.637C439.715 195.803 434.775 198.024 426.972 201.247C411.08 207.837 394.543 214.212 386.525 216.862C384.378 217.579 377.792 219.871 371.85 221.877C324.817 237.922 268.406 250.027 228.317 252.749C214.5 253.68 182.071 253.251 171.405 251.961C126.877 246.732 90.7969 233.194 60.3006 210.272C41.9742 196.519 25.7954 179.113 13.1244 159.558C6.25199 149.028 1.09768 141.65 0.524981 141.65C-0.33407 141.65 -0.119307 148.24 1.02609 155.833C1.52721 159.63 2.52943 167.796 3.17372 173.884C9.75978 237.205 20.3547 285.269 37.9653 331.113C63.3073 397.156 103.683 453.529 150.644 488.413C194.456 521.005 243.35 538.841 304.915 544.787C322.311 546.434 361.684 546.434 380.798 544.715C426.4 540.704 475.079 530.461 524.689 514.487C537.575 510.332 566.21 500.447 569.074 499.158C570.076 498.728 576.018 496.508 582.317 494.144C593.915 489.918 597.637 488.413 627.775 476.523C709.099 444.361 768.588 424.591 826.073 410.623C831.8 409.262 839.03 407.471 842.18 406.683C862.726 401.597 897.231 395.652 920.211 393.288C937.392 391.497 975.834 391.497 988.863 393.288C1027.74 398.589 1055.44 414.491 1068.76 439.132C1076.56 453.529 1079.42 470.649 1077.99 493.284C1076.99 509.903 1074.84 521.507 1070.19 535.976C1067.75 543.426 1066.61 548.297 1067.11 548.798C1068.4 550.016 1072.62 545.933 1085.51 530.962C1132.32 476.666 1160.39 420.938 1173.92 355.467C1175.78 346.299 1176.57 340.353 1177.93 325.526C1179.36 309.767 1179.36 279.253 1177.93 268.651C1177.35 264.282 1176.57 257.047 1176.14 252.606C1171.41 204.757 1149.72 144.945 1121.37 101.896C1112.49 88.429 1104.69 78.7589 1093.45 67.298C1069.9 43.1586 1046.2 27.9013 1012.2 14.9362C997.167 9.27736 973.472 3.83344 953.857 1.54126C944.55 0.466807 906.895 -0.46437 900.524 0.251935ZM993.588 93.658C1008.34 95.0907 1027.38 100.964 1041.55 108.486C1071.48 124.387 1095.24 152.968 1110.99 192.15C1115.36 203.038 1115.86 204.327 1117.65 210.058C1128.46 243.867 1132.75 280.47 1130.32 318.219C1129.1 337.416 1126.96 351.957 1120.66 383.403C1118.58 394.005 1116.36 405.465 1115.72 408.832C1114.07 417.714 1112.28 422.084 1110.2 422.084C1108.77 422.084 1108.13 421.009 1105.26 413.846C1094.81 387.486 1081 369.435 1061.1 355.969C1024.44 331.185 964.595 324.595 884.059 336.485C859.862 340.067 860.865 339.995 859.934 338.777C859.433 338.133 859.003 337.416 859.003 337.202C859.003 336.199 883.128 318.649 895.871 310.412C900.596 307.332 905.464 304.108 906.609 303.32C910.976 300.24 931.307 288.923 942.761 283.264C954.143 277.533 970.537 270.37 979.843 267.004C982.277 266.144 984.282 265.141 984.282 264.783C984.282 264.497 967.816 249.812 947.7 232.191C927.656 214.57 911.405 199.958 911.763 199.671C912.909 198.525 937.535 191.935 952.783 188.64C972.183 184.414 990.653 181.978 1018.86 179.901C1022.87 179.615 1024.37 179.256 1024.37 178.54C1024.37 177.394 1018.93 164.429 1015.57 157.409C1006.26 138.141 991.082 116.293 975.763 99.9615C972.398 96.3084 970.895 94.2311 971.539 94.0162C974.617 92.9417 984.854 92.7985 993.588 93.658Z" fill="black"/>
<path d="M993.588 93.658C1008.34 95.0907 1027.38 100.964 1041.55 108.486C1071.48 124.387 1095.24 152.968 1110.99 192.15C1115.36 203.038 1115.86 204.327 1117.65 210.058C1128.46 243.867 1132.75 280.47 1130.32 318.219C1129.1 337.416 1126.96 351.957 1120.66 383.403C1118.58 394.005 1116.36 405.465 1115.72 408.832C1114.07 417.714 1112.28 422.084 1110.2 422.084C1108.77 422.084 1108.13 421.009 1105.26 413.846C1094.81 387.486 1081 369.435 1061.1 355.969C1024.44 331.185 964.595 324.595 884.059 336.485C859.862 340.067 860.865 339.995 859.934 338.777C859.433 338.133 859.003 337.416 859.003 337.202C859.003 336.199 883.128 318.649 895.871 310.412C900.596 307.332 905.464 304.108 906.609 303.32C910.976 300.24 931.307 288.923 942.761 283.264C954.143 277.533 970.537 270.37 979.843 267.004C982.277 266.144 984.282 265.141 984.282 264.783C984.282 264.497 967.816 249.812 947.7 232.191C927.656 214.57 911.405 199.958 911.763 199.671C912.909 198.525 937.535 191.935 952.783 188.64C972.183 184.414 990.653 181.978 1018.86 179.901C1022.87 179.615 1024.37 179.256 1024.37 178.54C1024.37 177.394 1018.93 164.429 1015.57 157.409C1006.26 138.141 991.082 116.293 975.763 99.9615C972.398 96.3084 970.895 94.2311 971.539 94.0162C974.617 92.9417 984.854 92.7985 993.588 93.658Z" fill="black"/>
<path d="M993.588 93.658C1008.34 95.0907 1027.38 100.964 1041.55 108.486C1071.48 124.387 1095.24 152.968 1110.99 192.15C1115.36 203.038 1115.86 204.327 1117.65 210.058C1128.46 243.867 1132.75 280.47 1130.32 318.219C1129.1 337.416 1126.96 351.957 1120.66 383.403C1118.58 394.005 1116.36 405.465 1115.72 408.832C1114.07 417.714 1112.28 422.084 1110.2 422.084C1108.77 422.084 1108.13 421.009 1105.26 413.846C1094.81 387.486 1081 369.435 1061.1 355.969C1024.44 331.185 964.595 324.595 884.059 336.485C859.862 340.067 860.865 339.995 859.934 338.777C859.433 338.133 859.003 337.416 859.003 337.202C859.003 336.199 883.128 318.649 895.871 310.412C900.596 307.332 905.464 304.108 906.609 303.32C910.976 300.24 931.307 288.923 942.761 283.264C954.143 277.533 970.537 270.37 979.843 267.004C982.277 266.144 984.282 265.141 984.282 264.783C984.282 264.497 967.816 249.812 947.7 232.191C927.656 214.57 911.405 199.958 911.763 199.671C912.909 198.525 937.535 191.935 952.783 188.64C972.183 184.414 990.653 181.978 1018.86 179.901C1022.87 179.615 1024.37 179.256 1024.37 178.54C1024.37 177.394 1018.93 164.429 1015.57 157.409C1006.26 138.141 991.082 116.293 975.763 99.9615C972.398 96.3084 970.895 94.2311 971.539 94.0162C974.617 92.9417 984.854 92.7985 993.588 93.658Z" fill="white"/>
<path d="M1496.71 471.956H1388V77.3179H1671.14V127.744H1496.71V249.698H1631.44V299.85H1496.71V471.956Z" fill="black"/>
<path d="M2133.09 274.089C2133.09 305.879 2127.62 334.564 2116.66 360.142C2105.71 385.538 2090.56 407.097 2071.21 424.819C2051.86 442.541 2028.95 456.152 2002.48 465.653C1976.01 475.154 1947.34 479.904 1916.49 479.904C1885.64 479.904 1856.98 475.154 1830.51 465.653C1804.04 456.152 1781.13 442.541 1761.78 424.819C1742.43 407.097 1727.28 385.538 1716.32 360.142C1705.37 334.564 1699.89 305.879 1699.89 274.089C1699.89 241.75 1705.28 212.883 1716.05 187.488C1727 161.909 1742.06 140.35 1761.23 122.811C1780.58 105.089 1803.49 91.5687 1829.96 82.2508C1856.43 72.7503 1885.28 68 1916.49 68C1947.71 68 1976.55 72.7503 2003.02 82.2508C2029.49 91.5687 2052.31 105.089 2071.48 122.811C2090.83 140.35 2105.89 161.909 2116.66 187.488C2127.62 212.883 2133.09 241.75 2133.09 274.089ZM2022.47 274.089C2022.47 262.031 2021.92 249.698 2020.82 237.092C2019.73 224.485 2017.72 212.244 2014.8 200.368C2011.88 188.493 2007.86 177.348 2002.75 166.934C1997.82 156.52 1991.43 147.476 1983.58 139.802C1975.73 131.946 1966.24 125.825 1955.1 121.441C1944.15 116.873 1931.28 114.589 1916.49 114.589C1901.52 114.589 1888.47 116.873 1877.34 121.441C1866.2 125.825 1856.71 131.855 1848.86 139.528C1841.01 147.202 1834.62 156.246 1829.69 166.66C1824.76 177.074 1820.83 188.219 1817.91 200.094C1815.18 211.787 1813.26 224.028 1812.16 236.818C1811.07 249.424 1810.52 261.848 1810.52 274.089C1810.52 286.147 1811.07 298.48 1812.16 311.086C1813.26 323.693 1815.27 335.934 1818.19 347.81C1821.11 359.503 1825.03 370.556 1829.96 380.97C1835.07 391.384 1841.55 400.519 1849.4 408.376C1857.25 416.049 1866.66 422.17 1877.61 426.737C1888.74 431.305 1901.71 433.589 1916.49 433.589C1930.91 433.589 1943.51 431.305 1954.28 426.737C1965.05 421.987 1974.36 415.684 1982.21 407.827C1990.06 399.789 1996.54 390.562 2001.65 380.148C2006.95 369.551 2011.06 358.406 2013.98 346.713C2017.08 334.838 2019.27 322.688 2020.55 310.264C2021.83 297.84 2022.47 285.782 2022.47 274.089Z" fill="black"/>
<path d="M2519.47 471.956H2408.57L2316.01 333.559L2221.27 471.956H2144.59L2286.99 290.532L2144.59 77.3179H2255.49L2345.04 211.33L2442.79 77.3179H2519.47L2374.06 254.631L2519.47 471.956Z" fill="black"/>
<path d="M2675.28 471.956H2566.57V77.3179H2779.61C2798.04 77.3179 2815.66 79.7843 2832.46 84.7173C2849.43 89.6503 2864.4 97.1411 2877.36 107.19C2890.33 117.056 2900.64 129.571 2908.31 144.735C2916.16 159.717 2920.08 177.348 2920.08 197.628C2920.08 210.417 2918.26 222.475 2914.6 233.803C2910.95 244.948 2905.84 255.179 2899.27 264.497C2892.88 273.815 2885.3 282.219 2876.54 289.71C2867.78 297.201 2858.2 303.504 2847.79 308.62C2837.38 313.735 2826.34 317.664 2814.66 320.404C2803.16 323.145 2791.47 324.515 2779.61 324.515H2675.28V471.956ZM2810 197.628C2810 172.232 2803.52 152.317 2790.56 137.884C2777.78 123.268 2758.43 115.96 2732.51 115.96H2675.28V287.244H2732.51C2746.38 287.244 2758.16 285.051 2767.83 280.666C2777.69 276.099 2785.72 269.795 2791.93 261.756C2798.14 253.718 2802.7 244.308 2805.62 233.529C2808.54 222.567 2810 210.6 2810 197.628Z" fill="black"/>
<path d="M3388.33 274.089C3388.33 305.879 3382.85 334.564 3371.9 360.142C3360.95 385.538 3345.8 407.097 3326.45 424.819C3307.1 442.541 3284.18 456.152 3257.71 465.653C3231.24 475.154 3202.58 479.904 3171.73 479.904C3140.88 479.904 3112.22 475.154 3085.75 465.653C3059.28 456.152 3036.37 442.541 3017.02 424.819C2997.67 407.097 2982.51 385.538 2971.56 360.142C2960.61 334.564 2955.13 305.879 2955.13 274.089C2955.13 241.75 2960.52 212.883 2971.29 187.488C2982.24 161.909 2997.3 140.35 3016.47 122.811C3035.82 105.089 3058.73 91.5687 3085.2 82.2508C3111.67 72.7503 3140.51 68 3171.73 68C3202.95 68 3231.79 72.7503 3258.26 82.2508C3284.73 91.5687 3307.55 105.089 3326.72 122.811C3346.07 140.35 3361.13 161.909 3371.9 187.488C3382.85 212.883 3388.33 241.75 3388.33 274.089ZM3277.7 274.089C3277.7 262.031 3277.16 249.698 3276.06 237.092C3274.97 224.485 3272.96 212.244 3270.04 200.368C3267.12 188.493 3263.1 177.348 3257.99 166.934C3253.06 156.52 3246.67 147.476 3238.82 139.802C3230.97 131.946 3221.48 125.825 3210.34 121.441C3199.39 116.873 3186.52 114.589 3171.73 114.589C3156.76 114.589 3143.71 116.873 3132.57 121.441C3121.44 125.825 3111.95 131.855 3104.1 139.528C3096.25 147.202 3089.86 156.246 3084.93 166.66C3080 177.074 3076.07 188.219 3073.15 200.094C3070.41 211.787 3068.5 224.028 3067.4 236.818C3066.31 249.424 3065.76 261.848 3065.76 274.089C3065.76 286.147 3066.31 298.48 3067.4 311.086C3068.5 323.693 3070.51 335.934 3073.43 347.81C3076.35 359.503 3080.27 370.556 3085.2 380.97C3090.31 391.384 3096.79 400.519 3104.64 408.376C3112.49 416.049 3121.89 422.17 3132.85 426.737C3143.98 431.305 3156.94 433.589 3171.73 433.589C3186.15 433.589 3198.75 431.305 3209.52 426.737C3220.29 421.987 3229.6 415.684 3237.45 407.827C3245.3 399.789 3251.78 390.562 3256.89 380.148C3262.19 369.551 3266.29 358.406 3269.22 346.713C3272.32 334.838 3274.51 322.688 3275.79 310.264C3277.07 297.84 3277.7 285.782 3277.7 274.089Z" fill="black"/>
<path d="M3564.68 471.956H3455.97V77.3179H3564.68V471.956Z" fill="black"/>
<path d="M3704.61 471.956H3654.22V77.3179H3724.87L3964.47 348.358V77.3179H4014.58V471.956H3943.93L3704.61 201.19V471.956Z" fill="black"/>
<path d="M4286.22 471.956H4177.51V127.744H4070.17V77.3179H4393.56V127.744H4286.22V471.956Z" fill="black"/>
<path d="M4502 430.848C4502 437.791 4500.72 444.368 4498.17 450.58C4495.61 456.609 4492.05 461.908 4487.49 466.475C4482.92 470.86 4477.63 474.331 4471.6 476.889C4465.58 479.63 4459.1 481 4452.16 481C4445.23 481 4438.75 479.63 4432.72 476.889C4426.7 474.331 4421.4 470.86 4416.84 466.475C4412.27 461.908 4408.71 456.609 4406.16 450.58C4403.6 444.368 4402.33 437.791 4402.33 430.848C4402.33 424.088 4403.6 417.693 4406.16 411.664C4408.71 405.452 4412.27 400.154 4416.84 395.769C4421.4 391.202 4426.7 387.639 4432.72 385.081C4438.75 382.34 4445.23 380.97 4452.16 380.97C4459.1 380.97 4465.58 382.34 4471.6 385.081C4477.63 387.639 4482.92 391.202 4487.49 395.769C4492.05 400.154 4495.61 405.452 4498.17 411.664C4500.72 417.693 4502 424.088 4502 430.848Z" fill="black"/>
</svg>
