<svg width="1179" height="549" viewBox="0 0 1179 549" fill="none" xmlns="http://www.w3.org/2000/svg">
<path d="M900.524 0.251935C899.164 0.395196 893.222 0.896609 887.28 1.32639C861.008 3.26041 822.852 10.3518 794.217 18.5893C776.463 23.6751 752.195 31.841 736.946 37.7863C733.797 39.004 729.645 40.6515 727.64 41.3678C725.707 42.0841 721.34 43.8749 717.976 45.3075C714.611 46.7401 710.745 48.316 709.385 48.889C708.025 49.3904 704.303 50.9663 701.153 52.4705C698.003 53.9031 694.28 55.5506 692.849 56.0521C686.334 58.4159 659.775 72.1689 642.093 82.3404C633.502 87.2829 616.107 97.9559 603.078 106.193C582.389 119.302 578.953 121.379 559.624 132.983C537.289 146.378 528.627 151.392 519.32 156.335C515.812 158.269 510.157 161.277 506.792 163.14C499.49 167.151 465.844 183.984 457.755 187.637C439.715 195.803 434.775 198.024 426.972 201.247C411.08 207.837 394.543 214.212 386.525 216.862C384.378 217.579 377.792 219.871 371.85 221.877C324.817 237.922 268.406 250.027 228.317 252.749C214.5 253.68 182.071 253.251 171.405 251.961C126.877 246.732 90.7969 233.194 60.3006 210.272C41.9742 196.519 25.7954 179.113 13.1244 159.558C6.25199 149.028 1.09768 141.65 0.524981 141.65C-0.33407 141.65 -0.119307 148.24 1.02609 155.833C1.52721 159.63 2.52943 167.796 3.17372 173.884C9.75978 237.205 20.3547 285.269 37.9653 331.113C63.3073 397.156 103.683 453.529 150.644 488.413C194.456 521.005 243.35 538.841 304.915 544.787C322.311 546.434 361.684 546.434 380.798 544.715C426.4 540.704 475.079 530.461 524.689 514.487C537.575 510.332 566.21 500.447 569.074 499.158C570.076 498.728 576.018 496.508 582.317 494.144C593.915 489.918 597.637 488.413 627.775 476.523C709.099 444.361 768.588 424.591 826.073 410.623C831.8 409.262 839.03 407.471 842.18 406.683C862.726 401.597 897.231 395.652 920.211 393.288C937.392 391.497 975.834 391.497 988.863 393.288C1027.74 398.589 1055.44 414.491 1068.76 439.132C1076.56 453.529 1079.42 470.649 1077.99 493.284C1076.99 509.903 1074.84 521.507 1070.19 535.976C1067.75 543.426 1066.61 548.297 1067.11 548.798C1068.4 550.016 1072.62 545.933 1085.51 530.962C1132.32 476.666 1160.39 420.938 1173.92 355.467C1175.78 346.299 1176.57 340.353 1177.93 325.526C1179.36 309.767 1179.36 279.253 1177.93 268.651C1177.35 264.282 1176.57 257.047 1176.14 252.606C1171.41 204.757 1149.72 144.945 1121.37 101.896C1112.49 88.429 1104.69 78.7589 1093.45 67.298C1069.9 43.1586 1046.2 27.9013 1012.2 14.9362C997.167 9.27736 973.472 3.83344 953.857 1.54126C944.55 0.466807 906.895 -0.46437 900.524 0.251935ZM993.588 93.658C1008.34 95.0907 1027.38 100.964 1041.55 108.486C1071.48 124.387 1095.24 152.968 1110.99 192.15C1115.36 203.038 1115.86 204.327 1117.65 210.058C1128.46 243.867 1132.75 280.47 1130.32 318.219C1129.1 337.416 1126.96 351.957 1120.66 383.403C1118.58 394.005 1116.36 405.465 1115.72 408.832C1114.07 417.714 1112.28 422.084 1110.2 422.084C1108.77 422.084 1108.13 421.009 1105.26 413.846C1094.81 387.486 1081 369.435 1061.1 355.969C1024.44 331.185 964.595 324.595 884.059 336.485C859.862 340.067 860.865 339.995 859.934 338.777C859.433 338.133 859.003 337.416 859.003 337.202C859.003 336.199 883.128 318.649 895.871 310.412C900.596 307.332 905.464 304.108 906.609 303.32C910.976 300.24 931.307 288.923 942.761 283.264C954.143 277.533 970.537 270.37 979.843 267.004C982.277 266.144 984.282 265.141 984.282 264.783C984.282 264.497 967.816 249.812 947.7 232.191C927.656 214.57 911.405 199.958 911.763 199.671C912.909 198.525 937.535 191.935 952.783 188.64C972.183 184.414 990.653 181.978 1018.86 179.901C1022.87 179.615 1024.37 179.256 1024.37 178.54C1024.37 177.394 1018.93 164.429 1015.57 157.409C1006.26 138.141 991.082 116.293 975.763 99.9615C972.398 96.3084 970.895 94.2311 971.539 94.0162C974.617 92.9417 984.854 92.7985 993.588 93.658Z" fill="black"/>
<path d="M993.588 93.658C1008.34 95.0907 1027.38 100.964 1041.55 108.486C1071.48 124.387 1095.24 152.968 1110.99 192.15C1115.36 203.038 1115.86 204.327 1117.65 210.058C1128.46 243.867 1132.75 280.47 1130.32 318.219C1129.1 337.416 1126.96 351.957 1120.66 383.403C1118.58 394.005 1116.36 405.465 1115.72 408.832C1114.07 417.714 1112.28 422.084 1110.2 422.084C1108.77 422.084 1108.13 421.009 1105.26 413.846C1094.81 387.486 1081 369.435 1061.1 355.969C1024.44 331.185 964.595 324.595 884.059 336.485C859.862 340.067 860.865 339.995 859.934 338.777C859.433 338.133 859.003 337.416 859.003 337.202C859.003 336.199 883.128 318.649 895.871 310.412C900.596 307.332 905.464 304.108 906.609 303.32C910.976 300.24 931.307 288.923 942.761 283.264C954.143 277.533 970.537 270.37 979.843 267.004C982.277 266.144 984.282 265.141 984.282 264.783C984.282 264.497 967.816 249.812 947.7 232.191C927.656 214.57 911.405 199.958 911.763 199.671C912.909 198.525 937.535 191.935 952.783 188.64C972.183 184.414 990.653 181.978 1018.86 179.901C1022.87 179.615 1024.37 179.256 1024.37 178.54C1024.37 177.394 1018.93 164.429 1015.57 157.409C1006.26 138.141 991.082 116.293 975.763 99.9615C972.398 96.3084 970.895 94.2311 971.539 94.0162C974.617 92.9417 984.854 92.7985 993.588 93.658Z" fill="black"/>
<path d="M993.588 93.658C1008.34 95.0907 1027.38 100.964 1041.55 108.486C1071.48 124.387 1095.24 152.968 1110.99 192.15C1115.36 203.038 1115.86 204.327 1117.65 210.058C1128.46 243.867 1132.75 280.47 1130.32 318.219C1129.1 337.416 1126.96 351.957 1120.66 383.403C1118.58 394.005 1116.36 405.465 1115.72 408.832C1114.07 417.714 1112.28 422.084 1110.2 422.084C1108.77 422.084 1108.13 421.009 1105.26 413.846C1094.81 387.486 1081 369.435 1061.1 355.969C1024.44 331.185 964.595 324.595 884.059 336.485C859.862 340.067 860.865 339.995 859.934 338.777C859.433 338.133 859.003 337.416 859.003 337.202C859.003 336.199 883.128 318.649 895.871 310.412C900.596 307.332 905.464 304.108 906.609 303.32C910.976 300.24 931.307 288.923 942.761 283.264C954.143 277.533 970.537 270.37 979.843 267.004C982.277 266.144 984.282 265.141 984.282 264.783C984.282 264.497 967.816 249.812 947.7 232.191C927.656 214.57 911.405 199.958 911.763 199.671C912.909 198.525 937.535 191.935 952.783 188.64C972.183 184.414 990.653 181.978 1018.86 179.901C1022.87 179.615 1024.37 179.256 1024.37 178.54C1024.37 177.394 1018.93 164.429 1015.57 157.409C1006.26 138.141 991.082 116.293 975.763 99.9615C972.398 96.3084 970.895 94.2311 971.539 94.0162C974.617 92.9417 984.854 92.7985 993.588 93.658Z" fill="white"/>
<path d="M149.527 390.292H129V315.76H182.464V325.283H149.527V348.316H174.967V357.788H149.527V390.292Z" fill="white"/>
<path d="M269.692 352.922C269.692 358.926 268.658 364.344 266.59 369.175C264.521 373.971 261.66 378.042 258.006 381.39C254.352 384.737 250.026 387.307 245.028 389.102C240.03 390.896 234.618 391.793 228.792 391.793C222.967 391.793 217.555 390.896 212.557 389.102C207.559 387.307 203.232 384.737 199.579 381.39C195.925 378.042 193.064 373.971 190.995 369.175C188.927 364.344 187.893 358.926 187.893 352.922C187.893 346.815 188.91 341.363 190.944 336.567C193.012 331.736 195.856 327.664 199.475 324.352C203.129 321.005 207.455 318.451 212.453 316.691C217.452 314.897 222.898 314 228.792 314C234.687 314 240.133 314.897 245.132 316.691C250.13 318.451 254.439 321.005 258.058 324.352C261.712 327.664 264.556 331.736 266.59 336.567C268.658 341.363 269.692 346.815 269.692 352.922ZM248.803 352.922C248.803 350.645 248.699 348.316 248.492 345.935C248.286 343.554 247.906 341.242 247.355 338.999C246.803 336.756 246.045 334.652 245.08 332.685C244.149 330.718 242.943 329.01 241.46 327.561C239.978 326.077 238.186 324.921 236.083 324.093C234.015 323.23 231.585 322.799 228.792 322.799C225.966 322.799 223.501 323.23 221.399 324.093C219.296 324.921 217.503 326.06 216.021 327.509C214.539 328.958 213.332 330.666 212.402 332.633C211.471 334.6 210.73 336.705 210.178 338.948C209.661 341.156 209.299 343.468 209.093 345.883C208.886 348.264 208.782 350.61 208.782 352.922C208.782 355.2 208.886 357.529 209.093 359.91C209.299 362.291 209.679 364.603 210.23 366.845C210.782 369.054 211.523 371.141 212.453 373.108C213.419 375.075 214.642 376.8 216.125 378.284C217.607 379.733 219.382 380.889 221.45 381.752C223.553 382.614 226 383.046 228.792 383.046C231.516 383.046 233.894 382.614 235.928 381.752C237.962 380.855 239.72 379.664 241.202 378.18C242.684 376.662 243.908 374.92 244.873 372.953C245.873 370.952 246.648 368.847 247.2 366.638C247.786 364.395 248.199 362.101 248.441 359.754C248.682 357.408 248.803 355.131 248.803 352.922Z" fill="white"/>
<path d="M342.649 390.292H321.708L304.231 364.154L286.341 390.292H271.864L298.751 356.028L271.864 315.76H292.804L309.712 341.07L328.171 315.76H342.649L315.193 349.248L342.649 390.292Z" fill="white"/>
<path d="M372.07 390.292H351.542V315.76H391.77C395.251 315.76 398.578 316.226 401.749 317.157C404.955 318.089 407.781 319.504 410.229 321.401C412.676 323.265 414.624 325.628 416.071 328.492C417.554 331.322 418.295 334.652 418.295 338.482C418.295 340.897 417.95 343.175 417.261 345.314C416.571 347.419 415.606 349.351 414.365 351.111C413.159 352.871 411.728 354.458 410.074 355.873C408.419 357.287 406.609 358.478 404.644 359.444C402.68 360.41 400.594 361.152 398.388 361.67C396.216 362.187 394.01 362.446 391.77 362.446H372.07V390.292ZM397.509 338.482C397.509 333.685 396.285 329.924 393.838 327.198C391.425 324.438 387.771 323.058 382.876 323.058H372.07V355.407H382.876C385.496 355.407 387.719 354.993 389.546 354.165C391.408 353.302 392.924 352.111 394.096 350.593C395.268 349.075 396.13 347.298 396.682 345.262C397.233 343.192 397.509 340.932 397.509 338.482Z" fill="white"/>
<path d="M506.712 352.922C506.712 358.926 505.678 364.344 503.61 369.175C501.541 373.971 498.68 378.042 495.026 381.39C491.372 384.737 487.046 387.307 482.048 389.102C477.05 390.896 471.638 391.793 465.813 391.793C459.987 391.793 454.575 390.896 449.577 389.102C444.579 387.307 440.253 384.737 436.599 381.39C432.945 378.042 430.084 373.971 428.015 369.175C425.947 364.344 424.913 358.926 424.913 352.922C424.913 346.815 425.93 341.363 427.964 336.567C430.032 331.736 432.876 327.664 436.495 324.352C440.149 321.005 444.475 318.451 449.473 316.691C454.472 314.897 459.918 314 465.813 314C471.707 314 477.153 314.897 482.152 316.691C487.15 318.451 491.459 321.005 495.078 324.352C498.732 327.664 501.576 331.736 503.61 336.567C505.678 341.363 506.712 346.815 506.712 352.922ZM485.823 352.922C485.823 350.645 485.719 348.316 485.512 345.935C485.306 343.554 484.926 341.242 484.375 338.999C483.823 336.756 483.065 334.652 482.1 332.685C481.169 330.718 479.963 329.01 478.48 327.561C476.998 326.077 475.206 324.921 473.103 324.093C471.035 323.23 468.605 322.799 465.813 322.799C462.986 322.799 460.521 323.23 458.419 324.093C456.316 324.921 454.523 326.06 453.041 327.509C451.559 328.958 450.352 330.666 449.422 332.633C448.491 334.6 447.75 336.705 447.198 338.948C446.681 341.156 446.319 343.468 446.113 345.883C445.906 348.264 445.802 350.61 445.802 352.922C445.802 355.2 445.906 357.529 446.113 359.91C446.319 362.291 446.699 364.603 447.25 366.845C447.802 369.054 448.543 371.141 449.473 373.108C450.439 375.075 451.662 376.8 453.145 378.284C454.627 379.733 456.402 380.889 458.47 381.752C460.573 382.614 463.02 383.046 465.813 383.046C468.536 383.046 470.914 382.614 472.948 381.752C474.982 380.855 476.74 379.664 478.222 378.18C479.704 376.662 480.928 374.92 481.893 372.953C482.893 370.952 483.668 368.847 484.22 366.638C484.806 364.395 485.219 362.101 485.461 359.754C485.702 357.408 485.823 355.131 485.823 352.922Z" fill="white"/>
<path d="M540.011 390.292H519.483V315.76H540.011V390.292Z" fill="white"/>
<path d="M566.432 390.292H556.918V315.76H570.259L615.501 366.949V315.76H624.963V390.292H611.623L566.432 339.155V390.292Z" fill="white"/>
<path d="M676.256 390.292H655.728V325.283H635.46V315.76H696.524V325.283H676.256V390.292Z" fill="white"/>
<path d="M717 382.528C717 383.839 716.759 385.082 716.276 386.255C715.794 387.393 715.121 388.394 714.26 389.257C713.398 390.085 712.398 390.741 711.261 391.224C710.123 391.741 708.899 392 707.59 392C706.28 392 705.056 391.741 703.918 391.224C702.781 390.741 701.781 390.085 700.919 389.257C700.058 388.394 699.385 387.393 698.903 386.255C698.42 385.082 698.179 383.839 698.179 382.528C698.179 381.251 698.42 380.044 698.903 378.905C699.385 377.732 700.058 376.731 700.919 375.903C701.781 375.04 702.781 374.368 703.918 373.885C705.056 373.367 706.28 373.108 707.59 373.108C708.899 373.108 710.123 373.367 711.261 373.885C712.398 374.368 713.398 375.04 714.26 375.903C715.121 376.731 715.794 377.732 716.276 378.905C716.759 380.044 717 381.251 717 382.528Z" fill="white"/>
</svg>
