<?xml version="1.0" standalone="no"?>
<!DOCTYPE svg PUBLIC "-//W3C//DTD SVG 20010904//EN"
 "http://www.w3.org/TR/2001/REC-SVG-20010904/DTD/svg10.dtd">
<svg version="1.0" xmlns="http://www.w3.org/2000/svg"
 width="1685.000000pt" height="805.000000pt" viewBox="0 0 1685.000000 805.000000"
 preserveAspectRatio="xMidYMid meet">

<g transform="translate(0.000000,805.000000) scale(0.100000,-0.100000)"
fill="#000000" stroke="none">
<path d="M12745 8031 c-11 -4 -25 -6 -32 -4 -17 7 -359 -25 -449 -41 -43 -8
-110 -17 -149 -21 -38 -4 -113 -16 -165 -27 -52 -11 -117 -24 -145 -29 -219
-38 -737 -176 -895 -239 -25 -10 -83 -30 -130 -43 -47 -14 -110 -35 -140 -47
-30 -11 -71 -27 -90 -34 -156 -59 -296 -113 -410 -161 -74 -32 -160 -67 -190
-80 -277 -113 -644 -303 -1000 -517 -195 -118 -171 -103 -637 -394 -408 -255
-602 -370 -935 -555 -561 -311 -1300 -651 -1738 -800 -47 -16 -112 -40 -145
-53 -33 -13 -100 -36 -150 -51 -49 -15 -112 -35 -140 -46 -27 -10 -75 -25
-105 -33 -30 -8 -75 -21 -100 -29 -25 -8 -67 -20 -95 -27 -27 -7 -72 -19 -100
-27 -123 -36 -221 -61 -280 -74 -22 -4 -58 -12 -80 -18 -156 -38 -261 -61
-281 -61 -21 0 -142 -21 -364 -65 -41 -8 -181 -24 -310 -36 -207 -19 -269 -21
-515 -14 -154 4 -302 9 -330 11 -117 11 -331 46 -450 74 -49 11 -109 25 -133
30 -23 5 -50 13 -60 18 -9 5 -34 12 -55 16 -21 4 -64 18 -95 31 -31 13 -103
42 -160 64 -302 120 -612 326 -841 560 -118 121 -226 260 -358 459 -125 191
-178 254 -235 283 -47 24 -79 24 -126 0 -114 -59 -142 -163 -106 -391 8 -52
19 -147 25 -210 5 -63 16 -167 25 -230 8 -63 22 -171 30 -239 8 -68 18 -140
23 -160 5 -20 12 -64 16 -98 3 -34 13 -93 21 -130 8 -38 19 -99 24 -138 6 -38
23 -124 40 -190 16 -66 34 -140 39 -165 21 -105 42 -185 91 -350 28 -96 55
-188 60 -205 39 -134 171 -474 265 -685 198 -444 465 -879 764 -1245 130 -159
457 -490 605 -611 379 -309 840 -563 1271 -700 44 -14 103 -34 130 -44 49 -18
70 -24 190 -55 117 -30 181 -44 250 -55 39 -7 84 -16 100 -20 17 -5 62 -12
100 -15 39 -4 102 -13 140 -21 39 -7 142 -18 230 -23 88 -5 171 -11 185 -13
65 -9 710 -1 830 10 235 22 412 42 500 57 47 7 146 23 220 36 74 12 169 30
210 40 41 9 98 21 125 24 28 4 75 14 105 22 53 13 103 25 185 43 22 5 56 13
75 19 19 5 60 17 90 25 313 85 495 137 580 168 30 11 69 23 85 28 17 5 44 13
60 19 129 45 236 82 265 92 19 6 51 18 70 25 19 6 60 21 90 32 58 21 131 48
350 132 74 28 171 65 215 81 44 17 136 53 205 81 69 28 145 58 170 68 47 19
270 105 380 147 36 14 81 32 100 40 19 9 91 36 160 60 69 25 159 57 200 72
193 72 230 85 295 106 39 12 81 27 95 33 14 5 124 41 245 80 121 39 243 78
270 87 28 9 64 20 80 25 17 5 55 16 85 25 226 69 394 116 465 132 38 8 105 26
148 40 78 24 146 41 282 69 39 7 93 20 120 28 28 8 79 20 115 26 36 6 76 15
90 19 14 5 50 13 80 19 30 6 82 15 115 22 699 132 1333 155 1750 65 162 -35
180 -40 294 -85 256 -100 427 -246 525 -445 32 -65 42 -94 67 -185 23 -82 36
-300 28 -447 -12 -213 -39 -361 -106 -578 -57 -182 -57 -267 0 -331 33 -39
102 -74 143 -74 14 0 51 13 83 30 46 23 85 57 173 153 516 560 903 1169 1150
1807 41 107 114 319 138 400 7 25 21 70 30 100 10 30 27 98 39 150 11 52 27
124 35 160 25 112 65 399 76 555 15 198 8 661 -13 840 -33 281 -57 445 -87
578 -5 26 -14 66 -18 90 -15 79 -157 541 -192 627 -10 25 -35 86 -55 135 -142
346 -335 716 -493 945 -286 414 -666 768 -1069 998 -103 59 -327 167 -418 201
-33 13 -87 34 -120 47 -59 23 -195 66 -265 84 -19 5 -60 15 -90 24 -84 23
-266 55 -470 82 -129 17 -762 29 -795 15z m625 -35 c57 -4 126 -10 225 -20 48
-5 168 -27 176 -31 4 -3 30 -8 58 -11 29 -3 95 -16 149 -30 53 -13 106 -26
117 -29 191 -44 599 -211 795 -325 422 -246 781 -582 1064 -997 136 -201 328
-565 445 -848 35 -82 71 -170 81 -195 42 -100 186 -574 195 -640 2 -14 6 -32
9 -40 3 -8 7 -26 10 -40 2 -14 8 -43 14 -65 6 -22 13 -64 16 -93 4 -30 11 -75
17 -100 5 -26 12 -69 15 -97 2 -27 7 -72 10 -100 3 -27 7 -68 9 -90 5 -75 16
-160 24 -195 10 -39 7 -614 -3 -700 -4 -30 -9 -75 -10 -100 -10 -134 -59 -419
-106 -615 -48 -195 -147 -499 -233 -710 -64 -157 -85 -202 -169 -370 -165
-331 -355 -629 -592 -935 -110 -140 -229 -281 -355 -418 -129 -140 -193 -173
-284 -143 -75 25 -112 111 -88 209 7 26 26 91 42 145 17 53 32 110 35 125 3
15 9 41 15 59 5 17 12 43 15 57 2 14 6 38 9 54 2 15 7 52 11 82 3 30 9 74 14
97 8 45 5 375 -4 457 -8 69 -42 183 -77 262 -103 226 -293 393 -571 500 -165
64 -317 100 -513 119 -22 3 -69 7 -105 11 -135 13 -537 7 -715 -11 -22 -2 -65
-6 -95 -9 -30 -3 -80 -7 -110 -10 -30 -3 -66 -8 -80 -11 -14 -3 -45 -8 -70
-10 -25 -3 -52 -7 -60 -10 -8 -2 -37 -7 -64 -10 -27 -3 -51 -7 -55 -9 -3 -2
-31 -7 -61 -10 -30 -3 -78 -12 -107 -20 -28 -8 -54 -12 -56 -10 -2 3 -60 -9
-128 -26 -68 -16 -140 -32 -159 -35 -19 -2 -89 -18 -155 -35 -66 -16 -138 -32
-159 -35 -22 -4 -74 -17 -115 -30 -42 -13 -123 -36 -181 -50 -94 -24 -231 -62
-362 -101 -27 -8 -69 -20 -95 -28 -89 -26 -217 -67 -518 -166 -301 -99 -396
-132 -555 -191 -47 -17 -133 -49 -192 -70 -58 -21 -128 -46 -155 -57 -56 -23
-126 -50 -313 -122 -74 -28 -155 -60 -180 -70 -104 -44 -371 -149 -455 -179
-79 -29 -153 -57 -240 -91 -85 -33 -253 -96 -295 -110 -14 -5 -77 -27 -140
-50 -138 -50 -402 -137 -520 -173 -178 -53 -298 -87 -390 -111 -52 -14 -117
-32 -145 -40 -65 -19 -347 -83 -405 -91 -25 -4 -70 -13 -101 -21 -31 -7 -73
-16 -94 -19 -20 -2 -45 -7 -54 -9 -9 -3 -33 -7 -53 -10 -21 -3 -58 -10 -83
-16 -25 -6 -48 -9 -52 -8 -8 2 -79 -8 -126 -18 -12 -2 -42 -7 -67 -9 -25 -3
-63 -8 -85 -11 -73 -9 -119 -14 -195 -19 -41 -3 -97 -8 -125 -11 -135 -15
-689 -22 -825 -10 -36 3 -108 8 -160 11 -133 7 -199 14 -240 25 -19 5 -64 12
-100 15 -67 6 -114 13 -140 20 -8 2 -35 7 -60 10 -25 3 -70 13 -100 20 -31 8
-73 17 -95 21 -22 3 -47 10 -55 14 -8 4 -42 13 -75 20 -62 13 -321 96 -460
148 -168 63 -482 216 -625 306 -316 199 -503 347 -756 600 -301 302 -501 560
-735 951 -39 66 -84 141 -100 167 -72 121 -285 574 -339 723 -11 28 -35 93
-55 145 -51 135 -88 247 -140 433 -25 89 -50 173 -55 187 -5 14 -12 39 -14 55
-3 17 -12 57 -20 90 -40 160 -86 364 -90 401 -2 22 -12 76 -21 120 -18 88 -23
116 -31 189 -2 28 -9 66 -14 86 -9 31 -21 132 -22 179 0 8 -6 49 -14 90 -15
87 -25 175 -38 350 -3 41 -9 89 -12 105 -4 17 -8 41 -9 55 -2 14 -6 48 -11 75
-18 116 -4 236 33 277 44 49 115 63 171 34 43 -22 91 -82 190 -236 224 -349
430 -570 732 -787 149 -107 344 -213 522 -284 57 -22 123 -49 148 -59 25 -10
72 -26 105 -34 247 -67 330 -86 435 -100 25 -4 52 -9 61 -11 9 -3 40 -8 70
-11 30 -3 74 -7 99 -10 249 -25 607 -25 885 1 28 3 70 7 95 9 61 5 133 15 205
28 33 5 69 11 80 13 11 1 56 9 100 18 96 20 126 25 185 33 47 6 205 39 231 48
8 3 25 8 39 11 109 22 216 49 338 84 78 22 156 43 172 46 17 3 47 12 68 20 20
8 57 19 82 25 25 6 68 20 95 30 28 10 100 35 160 54 273 86 644 231 1020 398
582 259 1401 706 2000 1093 273 176 726 450 930 562 193 106 469 241 635 308
30 13 116 48 190 80 365 153 744 286 1105 390 173 49 477 123 575 139 14 2 68
13 121 25 52 11 115 22 140 25 94 10 146 17 194 26 66 13 129 21 190 25 28 1
76 6 107 9 31 4 93 8 137 10 45 2 83 5 85 7 6 5 501 1 586 -5z"/>
<path d="M12770 7854 c-19 -2 -102 -9 -185 -15 -367 -27 -900 -126 -1300 -241
-248 -71 -587 -185 -800 -268 -44 -17 -102 -40 -130 -50 -27 -10 -88 -35 -135
-55 -47 -20 -101 -42 -120 -50 -19 -7 -71 -29 -115 -50 -44 -20 -96 -43 -116
-50 -91 -33 -462 -225 -709 -367 -120 -69 -363 -218 -545 -333 -289 -183 -337
-212 -607 -374 -312 -187 -433 -257 -563 -326 -49 -27 -128 -69 -175 -95 -102
-56 -572 -291 -685 -342 -252 -114 -321 -145 -430 -190 -222 -92 -453 -181
-565 -218 -30 -10 -122 -42 -205 -70 -657 -224 -1445 -393 -2005 -431 -193
-13 -646 -7 -795 11 -622 73 -1126 262 -1552 582 -256 192 -482 435 -659 708
-96 147 -168 250 -176 250 -12 0 -9 -92 7 -198 7 -53 21 -167 30 -252 92 -884
240 -1555 486 -2195 354 -922 918 -1709 1574 -2196 612 -455 1295 -704 2155
-787 243 -23 793 -23 1060 1 637 56 1317 199 2010 422 180 58 580 196 620 214
14 6 97 37 185 70 162 59 214 80 635 246 1136 449 1967 725 2770 920 80 19
181 44 225 55 287 71 769 154 1090 187 240 25 777 25 959 0 543 -74 930 -296
1116 -640 109 -201 149 -440 129 -756 -14 -232 -44 -394 -109 -596 -34 -104
-50 -172 -43 -179 18 -17 77 40 257 249 654 758 1046 1536 1235 2450 26 128
37 211 56 418 20 220 20 646 0 794 -8 61 -19 162 -25 224 -66 668 -369 1503
-765 2104 -124 188 -233 323 -390 483 -329 337 -660 550 -1135 731 -210 79
-541 155 -815 187 -130 15 -656 28 -745 18z m1300 -1304 c206 -20 472 -102
670 -207 418 -222 750 -621 970 -1168 61 -152 68 -170 93 -250 151 -472 211
-983 177 -1510 -17 -268 -47 -471 -135 -910 -29 -148 -60 -308 -69 -355 -23
-124 -48 -185 -77 -185 -20 0 -29 15 -69 115 -146 368 -339 620 -617 808 -512
346 -1348 438 -2473 272 -338 -50 -324 -49 -337 -32 -7 9 -13 19 -13 22 0 14
337 259 515 374 66 43 134 88 150 99 61 43 345 201 505 280 159 80 388 180
518 227 34 12 62 26 62 31 0 4 -230 209 -511 455 -280 246 -507 450 -502 454
16 16 360 108 573 154 271 59 529 93 923 122 56 4 77 9 77 19 0 16 -76 197
-123 295 -130 269 -342 574 -556 802 -47 51 -68 80 -59 83 43 15 186 17 308 5z
m-10448 -3234 c79 -17 116 -35 168 -82 89 -80 130 -206 130 -394 0 -194 -41
-315 -136 -399 -76 -66 -138 -86 -279 -86 -141 0 -199 16 -274 75 -96 76 -151
226 -151 413 0 159 38 289 109 370 82 93 270 137 433 103z m2568 3 c80 -12
132 -38 188 -92 85 -82 122 -199 122 -387 0 -346 -142 -502 -444 -487 -118 6
-158 16 -222 60 -114 76 -164 193 -171 403 -4 111 -2 144 16 214 41 163 131
255 278 285 85 16 150 18 233 4z m-3155 -59 l0 -45 -170 -5 -170 -5 0 -150 0
-150 143 -3 142 -3 0 -49 0 -49 -142 -3 -143 -3 -5 -215 -5 -215 -115 -3 c-63
-1 -125 0 -137 3 l-23 5 0 464 c0 254 3 466 7 469 4 4 144 6 312 5 l306 -3 0
-45z m1301 -95 c43 -80 81 -145 84 -145 3 0 44 64 91 143 l85 142 62 3 c34 2
62 0 62 -4 0 -3 -52 -92 -116 -198 -64 -105 -118 -194 -120 -197 -1 -3 64
-124 145 -270 97 -173 144 -267 137 -271 -14 -10 -278 -10 -292 0 -11 7 -41
60 -133 232 -22 41 -43 76 -48 77 -5 2 -51 -68 -103 -154 l-95 -158 -54 -3
c-30 -2 -58 1 -63 6 -5 5 8 35 31 73 22 35 80 130 129 211 l90 147 -135 242
c-74 133 -137 249 -140 256 -4 10 26 13 149 13 l155 0 79 -145z m1136 112 c72
-36 113 -82 134 -154 33 -114 -2 -238 -84 -300 -60 -45 -128 -64 -262 -72
l-115 -6 -5 -190 -5 -190 -137 -3 -138 -3 0 476 0 476 278 -3 277 -3 57 -28z
m1428 -437 l0 -470 -140 0 -140 0 0 470 0 470 140 0 140 0 0 -470z m535 163
c110 -166 203 -302 208 -302 4 -1 7 136 7 304 l0 305 50 0 50 0 -2 -472 -3
-473 -99 -3 c-65 -2 -103 1 -112 9 -8 7 -76 105 -150 218 -206 313 -218 330
-226 331 -4 0 -9 -125 -10 -277 l-3 -278 -47 -3 -48 -3 0 476 0 476 92 -3 92
-3 201 -302z m1135 257 l0 -49 -117 -3 -118 -3 -3 -422 -2 -423 -145 0 -145 0
0 425 0 424 -117 3 -118 3 -1 40 c-1 22 0 43 3 48 2 4 175 7 384 7 l379 0 0
-50z m277 -695 c34 -34 35 -38 31 -96 -3 -48 -10 -65 -30 -86 -52 -52 -179
-38 -207 23 -15 33 -13 113 3 143 19 35 54 50 115 51 48 0 57 -4 88 -35z"/>
<path d="M3443 3225 c-37 -26 -54 -90 -64 -241 -12 -176 2 -427 26 -478 25
-51 51 -71 97 -71 52 0 91 42 107 113 18 85 24 337 12 471 -12 128 -28 181
-65 206 -26 19 -86 19 -113 0z"/>
<path d="M6015 3216 c-33 -33 -44 -80 -56 -241 -11 -156 1 -393 24 -461 18
-51 70 -88 112 -80 45 9 81 55 96 123 17 78 17 487 0 565 -17 78 -54 118 -110
118 -31 0 -48 -6 -66 -24z"/>
<path d="M5147 3213 c-4 -3 -7 -87 -7 -185 l0 -178 50 0 c71 0 103 19 129 79
27 64 28 150 1 209 -15 33 -29 47 -62 62 -43 19 -99 26 -111 13z"/>
</g>
</svg>
