<svg width="1003" height="1101" viewBox="0 0 1003 1101" fill="none" xmlns="http://www.w3.org/2000/svg">
<path d="M232.617 464.283C297.492 466.426 342.241 419.14 400.736 425.27C453.278 430.8 484.709 468.312 534.768 473.628C585.812 479.03 622.767 424.97 676.38 422.141C731.021 419.268 770.631 468.955 832.424 471.999C886.85 474.7 930.357 441.347 978.832 432.815C973.222 407.221 965.771 380.899 955.451 354.105C946.972 354.019 938.365 353.933 929.544 353.89C862.998 353.419 855.076 360.621 786.133 359.035C719.074 357.448 669.829 349.26 617.115 340.214C423.131 306.904 326.097 290.27 291.069 280.41C241.909 266.562 180.674 246.37 111.302 216.446C100.939 231.665 92.2035 245.427 85.095 256.702C61.3717 294.257 19.0207 361.478 4.84668 448.763C30.1544 438.603 55.2053 428.743 84.3242 428.4C140.078 427.714 174.893 462.353 232.617 464.283Z" fill="#DADADA"/>
<path d="M408.315 5.09327C666.06 -37.6489 863.17 202.042 880.684 223.992C980.63 349.303 989.923 480.316 996.688 576.261C1006.02 707.703 1014.72 830.571 924.876 918.456C806.859 1033.91 602.812 1006.86 524.32 996.438C320.444 969.387 193.477 856.722 151.383 815.266C106.677 771.281 25.9149 691.755 4.97494 566.187C-19.091 421.755 51.608 309.733 85.0948 256.702C127.317 189.867 224.737 35.5316 408.315 5.09327Z" fill="#889AF3"/>
<path d="M542.262 198.398C544.831 198.698 550.27 198.655 561.018 202.599C571.124 206.286 575.063 207.272 577.504 209.372C580.288 211.73 577.847 201.184 579.902 191.495C581.958 181.935 586.069 177.519 587.268 175.89C587.91 174.99 580.844 179.492 577.076 185.365C573.179 191.41 575.449 197.154 572.28 198.569C570.91 199.169 570.139 198.398 565.214 197.197C561.104 196.211 557.421 195.782 555.323 195.697C548.899 195.397 541.534 198.312 542.262 198.398Z" fill="white"/>
<path opacity="0.3" d="M617.157 340.257C669.871 349.303 719.073 357.491 786.175 359.078C855.118 360.707 862.998 353.462 929.586 353.933C938.407 353.976 947.014 354.062 955.493 354.148C938.964 311.191 915.283 267.248 880.769 223.992C863.255 202.042 666.145 -37.6489 408.4 5.09327C255.74 30.3871 162.687 141.38 111.387 216.489C180.758 246.456 241.994 266.605 291.153 280.453C326.139 290.313 423.13 306.99 617.157 340.257Z" fill="white"/>
<path d="M337.701 278.481C331.021 274.837 328.152 276.852 323.227 274.451C313.335 269.606 311.965 257.946 310.552 249.672C305.884 228.793 287.3 213.188 265.032 213.188C243.792 213.188 225.893 227.422 220.24 246.842C219.727 248.6 217.543 249.243 216.087 248.128C209.578 242.984 201.356 239.897 192.449 239.897C175.406 239.897 160.975 251.129 156.093 266.563C154.937 270.207 152.154 273.251 148.556 274.58C148.514 274.58 148.514 274.622 148.471 274.622C139.778 277.795 135.581 271.879 124.533 275.437C116.697 277.966 109.803 283.84 110.659 286.326C111.43 288.427 117.896 287.869 129.972 286.54C140.035 285.426 148.171 284.397 154.723 283.54C163.03 282.468 168.683 281.653 171.595 281.31C198.573 278.095 201.613 289.627 228.291 291.042C228.976 291.085 229.618 291.128 230.346 291.128C232.102 291.171 233.943 291.213 235.956 291.171C253.556 290.828 252.914 287.098 285.415 284.74C293.637 284.14 300.018 283.925 305.071 283.925C314.534 283.925 319.245 284.654 322.028 285.169C337.444 287.998 347.293 293.486 348.749 290.999C350.034 288.855 344.467 282.168 337.701 278.481Z" fill="white"/>
<path d="M429.255 273.679V204.4C429.255 197.97 424.073 192.782 417.65 192.782H400.136C393.713 192.782 388.531 197.97 388.531 204.4V273.679C388.531 280.11 393.713 285.297 400.136 285.297H417.65C424.031 285.297 429.255 280.11 429.255 273.679Z" fill="#F97DF3"/>
<path d="M461.714 457.381V397.833C461.714 389.988 468.094 383.6 475.931 383.6H539.907C547.743 383.6 554.124 389.988 554.124 397.833V477.787L534.083 459.91L507.876 449.535L480.727 450.607L461.714 457.381Z" fill="#EB96E7"/>
<g opacity="0.15">
<path d="M461.714 397.834V457.381L480.77 450.565L507.919 449.493L534.126 459.868L554.166 477.745V414.81C546.202 410.137 535.496 406.751 523.891 403.107C504.664 397.062 503.465 400.749 490.961 395.004C483.339 391.489 478.072 387.502 473.832 383.729C467.024 384.844 461.714 390.717 461.714 397.834Z" fill="black"/>
</g>
<path d="M479.1 383.6V275.266C479.1 270.635 475.331 266.906 470.749 266.906H429.255V209.159H470.749C507.148 209.159 536.781 238.825 536.781 275.266V383.6" fill="#EB96E7"/>
<path opacity="0.15" d="M501.881 356.763C491.047 315.907 512.886 268.792 492.203 251.172C479.314 240.198 454.82 239.897 429.041 234.967L429.298 266.906H470.792C475.417 266.906 479.143 270.679 479.143 275.266V383.6H528.987C520.723 367.567 508.347 381.285 501.881 356.763Z" fill="black"/>
<path opacity="0.15" d="M400.093 285.298H417.607C424.03 285.298 429.212 280.11 429.212 273.68V271.065C422.617 269.178 412.725 269.736 403.776 262.748C393.498 254.774 390.629 241.698 388.445 233.038V273.68C388.488 280.11 393.67 285.298 400.093 285.298Z" fill="black"/>
<path d="M370.503 587.193L381.08 478.302C383.949 448.892 408.614 426.471 438.162 426.471H569.539C581.401 426.471 592.492 432.387 599.129 442.29L703.101 597.868" fill="#EB96E7"/>
<path d="M986.068 471.657C986.968 477.401 987.781 483.103 988.552 488.762C987.781 483.06 986.968 477.401 986.068 471.657Z" fill="#DADADA"/>
<path d="M989.108 493.006C989.665 497.336 990.179 501.623 990.65 505.868C990.179 501.581 989.665 497.293 989.108 493.006Z" fill="#DADADA"/>
<path d="M991.164 510.283C991.721 515.556 992.277 520.744 992.748 525.888C992.277 520.744 991.721 515.513 991.164 510.283Z" fill="#DADADA"/>
<path d="M994.504 546.338C994.804 550.325 995.146 554.312 995.403 558.213C995.146 554.269 994.846 550.325 994.504 546.338Z" fill="#DADADA"/>
<path d="M983.156 454.508C984.141 459.781 985.04 465.055 985.854 470.242C984.998 465.012 984.098 459.781 983.156 454.508Z" fill="#DADADA"/>
<path d="M8.82915 585.564C8.61504 584.707 8.44375 583.807 8.27246 582.949C8.44375 583.85 8.61504 584.707 8.82915 585.564Z" fill="#DADADA"/>
<path d="M979.474 436.074C980.416 440.575 981.358 445.077 982.214 449.535C981.358 445.077 980.459 440.575 979.474 436.074Z" fill="#DADADA"/>
<path d="M992.791 526.188C993.305 531.59 993.776 536.906 994.204 542.179C993.733 536.906 993.305 531.59 992.791 526.188Z" fill="#DADADA"/>
<path d="M996.774 576.562C996.774 576.433 996.774 576.347 996.731 576.219C996.388 571.632 996.089 566.916 995.703 562.157C996.046 566.916 996.388 571.632 996.731 576.219C996.774 576.347 996.774 576.476 996.774 576.562Z" fill="#DADADA"/>
<path d="M998.915 607.814C998.915 607.986 998.958 608.157 998.958 608.329C998.958 608.157 998.958 607.986 998.915 607.814Z" fill="#DADADA"/>
<path d="M996.773 576.562C997.501 587.022 998.229 597.44 998.915 607.814C998.229 597.482 997.501 587.065 996.773 576.562Z" fill="#5B5B5B"/>
<path d="M985.854 470.199C985.94 470.671 986.026 471.142 986.111 471.614C986.026 471.185 985.94 470.671 985.854 470.199Z" fill="#5B5B5B"/>
<path d="M978.832 432.858C979.046 433.93 979.26 435.002 979.474 436.074C979.26 435.002 979.089 433.93 978.832 432.858Z" fill="#5B5B5B"/>
<path d="M982.215 449.535C982.515 451.207 982.857 452.836 983.157 454.508C982.857 452.836 982.515 451.164 982.215 449.535Z" fill="#5B5B5B"/>
<path d="M998.958 608.372C999.643 618.918 1000.29 629.379 1000.8 639.754C1000.29 629.336 999.643 618.875 998.958 608.372Z" fill="#5B5B5B"/>
<path d="M994.205 542.179C994.334 543.593 994.419 544.965 994.548 546.337C994.419 544.922 994.291 543.551 994.205 542.179Z" fill="#5B5B5B"/>
<path d="M995.446 558.17C995.532 559.499 995.66 560.828 995.746 562.157C995.618 560.871 995.532 559.542 995.446 558.17Z" fill="#5B5B5B"/>
<path d="M988.552 488.719C988.723 490.134 988.937 491.549 989.108 493.006C988.894 491.549 988.723 490.134 988.552 488.719Z" fill="#5B5B5B"/>
<path d="M992.749 525.846C992.749 525.931 992.792 526.06 992.792 526.146C992.792 526.06 992.749 525.974 992.749 525.846Z" fill="#5B5B5B"/>
<path d="M990.65 505.825C990.822 507.283 990.993 508.783 991.164 510.241C990.993 508.783 990.822 507.326 990.65 505.825Z" fill="#5B5B5B"/>
<path d="M1000.8 639.753C1000.8 639.71 1000.8 639.71 1000.8 639.753C1000.29 629.378 999.643 618.918 998.958 608.372C998.958 608.2 998.915 608.029 998.915 607.857C998.23 597.525 997.502 587.108 996.774 576.604C996.774 576.476 996.774 576.39 996.731 576.261C996.389 571.674 996.089 566.958 995.703 562.2C995.618 560.871 995.489 559.542 995.404 558.213C995.104 554.312 994.804 550.325 994.504 546.338C994.376 544.966 994.29 543.594 994.162 542.179C993.734 536.906 993.263 531.59 992.749 526.188C992.749 526.103 992.749 525.974 992.706 525.888C992.235 520.744 991.678 515.556 991.121 510.283C990.95 508.826 990.779 507.325 990.608 505.868C990.137 501.623 989.623 497.336 989.066 493.006C988.895 491.592 988.723 490.177 988.509 488.719C987.738 483.06 986.925 477.401 986.026 471.614C985.94 471.142 985.854 470.671 985.769 470.199C984.955 465.012 984.056 459.739 983.071 454.465C982.771 452.836 982.471 451.164 982.129 449.492C981.272 445.034 980.373 440.532 979.388 436.031C979.174 434.959 978.96 433.887 978.703 432.816C930.229 441.347 886.721 474.658 832.295 472C770.503 468.956 730.892 419.268 676.252 422.141C622.639 424.97 585.683 479.03 534.639 473.629C484.581 468.313 453.149 430.801 400.607 425.27C342.112 419.097 297.406 466.426 232.488 464.283C174.764 462.354 139.95 427.714 84.2382 428.4C55.0765 428.743 30.0684 438.646 4.76067 448.764C-1.06312 484.689 -2.13366 524.045 4.88913 566.144C5.83122 571.846 6.94459 577.419 8.1436 582.949C8.31489 583.807 8.529 584.707 8.70029 585.564C9.77084 590.323 10.927 594.996 12.1689 599.583C12.383 600.355 12.5543 601.212 12.7684 601.984C12.8112 601.984 12.8112 602.027 12.854 602.027C41.5447 707.06 111.045 775.611 151.34 815.266C193.434 856.679 320.401 969.387 524.277 996.438C602.769 1006.86 806.816 1033.91 924.833 918.456C1000.11 844.847 1006.28 746.802 1000.8 639.753Z" fill="#252525"/>
<path d="M150.992 815.479C193.086 856.892 320.053 969.6 523.928 996.651C602.421 1007.07 806.467 1034.12 924.485 918.669C1005.97 838.972 1006.58 730.009 999.001 612.5C984.741 621.16 968.805 630.063 951.291 637.865C896.565 662.301 876.096 658.1 802.785 680.607C687.208 716.061 631.111 759.189 577.455 784.869C404.069 867.824 212.556 789.278 105.501 767.5C122.287 786.62 137.931 802.618 150.992 815.479Z" fill="#0E0E0E"/>
<path fill-rule="evenodd" clip-rule="evenodd" d="M258.616 502.582C263.253 499.03 269.04 497.167 274.63 498.687L274.631 498.687C279.442 500 282.938 503.511 285.22 507.634C287.5 511.754 288.62 516.572 288.642 520.696L288.642 520.697C288.665 526.794 286.286 533.181 282.527 538.003C278.775 542.816 273.521 546.217 267.737 546.008L267.734 546.008C261.733 545.777 256.356 541.732 252.868 536.271C249.373 530.797 247.653 523.723 249.111 517.141M258.616 502.582C253.978 506.136 250.366 511.467 249.111 517.141L258.616 502.582ZM259.833 504.17C255.532 507.465 252.207 512.401 251.064 517.573L251.064 517.573C249.739 523.553 251.294 530.09 254.554 535.194C257.822 540.312 262.678 543.811 267.81 544.01C272.731 544.186 277.432 541.285 280.95 536.774C284.459 532.271 286.663 526.313 286.642 520.706C286.622 516.899 285.579 512.414 283.47 508.603C281.363 504.795 278.243 501.747 274.105 500.616C269.289 499.307 264.135 500.874 259.833 504.17Z" fill="white"/>
<path fill-rule="evenodd" clip-rule="evenodd" d="M342.982 979.863C348.218 977.273 354.256 976.563 359.446 979.135L359.447 979.135C363.914 981.353 366.666 985.473 368.108 989.96C369.55 994.443 369.718 999.386 368.943 1003.44L368.943 1003.44C367.787 1009.42 364.219 1015.23 359.599 1019.24C354.988 1023.23 349.177 1025.56 343.541 1024.23L343.539 1024.23C337.695 1022.85 333.201 1017.84 330.834 1011.81C328.462 1005.76 328.141 998.488 330.843 992.312M342.982 979.863C337.745 982.454 333.171 986.986 330.843 992.311L342.982 979.863ZM343.869 981.656C339.013 984.058 334.797 988.259 332.676 993.113L332.676 993.113C330.22 998.724 330.484 1005.44 332.696 1011.08C334.914 1016.73 339.003 1021.1 343.999 1022.29C348.793 1023.41 353.967 1021.47 358.289 1017.73C362.603 1013.99 365.916 1008.56 366.979 1003.06C367.694 999.32 367.538 994.718 366.204 990.572C364.872 986.429 362.401 982.835 358.558 980.927C354.086 978.711 348.727 979.253 343.869 981.656Z" fill="#0E0E0E"/>
<path fill-rule="evenodd" clip-rule="evenodd" d="M266.351 742.122C260.467 740.887 254.807 745.085 253.487 750.181L266.351 742.122ZM253.487 750.181C252.553 753.778 253.81 757.539 256.064 760.283C258.314 763.023 261.708 764.929 265.256 764.588C270.775 764.06 275.402 758.304 274.936 752.284L274.936 752.279C274.563 747.761 271.355 743.172 266.351 742.122M265.94 744.079C261.204 743.085 256.502 746.518 255.423 750.682L255.423 750.683C254.687 753.516 255.657 756.636 257.61 759.014C259.567 761.398 262.361 762.857 265.065 762.598L265.065 762.598C269.394 762.183 273.331 757.48 272.942 752.441C272.628 748.642 269.927 744.916 265.94 744.079L265.94 744.079Z" fill="white"/>
<path fill-rule="evenodd" clip-rule="evenodd" d="M303.175 1050.22C297.292 1048.98 291.631 1053.18 290.311 1058.28L303.175 1050.22ZM290.311 1058.28C289.377 1061.87 290.635 1065.63 292.888 1068.38C295.138 1071.12 298.532 1073.02 302.08 1072.68C307.599 1072.15 312.226 1066.4 311.76 1060.38L311.76 1060.37C311.388 1055.86 308.18 1051.27 303.175 1050.22M302.764 1052.17C298.028 1051.18 293.326 1054.61 292.247 1058.78L292.247 1058.78C291.511 1061.61 292.481 1064.73 294.434 1067.11C296.391 1069.49 299.185 1070.95 301.889 1070.69L301.889 1070.69C306.219 1070.28 310.155 1065.57 309.766 1060.54C309.453 1056.74 306.752 1053.01 302.764 1052.17L302.764 1052.17Z" fill="#0E0E0E"/>
<path fill-rule="evenodd" clip-rule="evenodd" d="M162.175 930.217C156.292 928.982 150.631 933.18 149.311 938.275L162.175 930.217ZM149.311 938.276C148.377 941.873 149.635 945.634 151.888 948.378C154.138 951.118 157.532 953.024 161.08 952.683C166.599 952.155 171.226 946.399 170.76 940.378L170.76 940.373C170.388 935.856 167.18 931.267 162.175 930.217M161.764 932.174C157.028 931.18 152.326 934.612 151.247 938.777L151.247 938.778C150.511 941.611 151.481 944.73 153.434 947.109C155.391 949.492 158.185 950.952 160.889 950.692L160.889 950.692C165.219 950.278 169.155 945.575 168.766 940.535C168.453 936.737 165.752 933.01 161.764 932.174L161.764 932.174Z" fill="#0E0E0E"/>
<path fill-rule="evenodd" clip-rule="evenodd" d="M682.101 502.158C684.806 504.849 686.616 508.616 686.8 512.509C686.984 516.404 685.515 520.333 683.056 523.267C680.596 526.204 677.07 528.226 673.102 528.132L673.1 528.132C669.394 528.037 666.22 526.134 663.954 523.459C661.692 520.789 660.278 517.292 660.094 513.852L660.094 513.852C659.911 510.386 660.985 506.717 663.001 503.804C665.02 500.885 668.039 498.655 671.771 498.229L671.771 498.229C675.713 497.78 679.394 499.465 682.101 502.158ZM671.997 500.217C675.207 499.851 678.313 501.211 680.691 503.576C683.071 505.944 684.644 509.25 684.802 512.603C684.961 515.953 683.689 519.398 681.523 521.983C679.36 524.565 676.377 526.209 673.151 526.132C670.135 526.055 667.463 524.507 665.48 522.166C663.492 519.82 662.251 516.737 662.092 513.746M671.997 500.217C668.963 500.563 666.415 502.384 664.645 504.942C662.871 507.505 661.933 510.739 662.092 513.746" fill="white"/>
<path fill-rule="evenodd" clip-rule="evenodd" d="M525.028 1075C527.733 1077.69 529.543 1081.46 529.727 1085.35C529.911 1089.25 528.442 1093.18 525.983 1096.11C523.522 1099.05 519.996 1101.07 516.029 1100.97L516.027 1100.97C512.321 1100.88 509.147 1098.98 506.881 1096.3C504.618 1093.63 503.204 1090.13 503.021 1086.7L503.021 1086.69C502.838 1083.23 503.911 1079.56 505.927 1076.65C507.947 1073.73 510.966 1071.5 514.698 1071.07L514.698 1071.07C518.64 1070.62 522.321 1072.31 525.028 1075ZM514.924 1073.06C518.134 1072.69 521.24 1074.05 523.617 1076.42C525.998 1078.79 527.571 1082.09 527.729 1085.45C527.888 1088.8 526.616 1092.24 524.45 1094.83C522.286 1097.41 519.304 1099.05 516.078 1098.98C513.062 1098.9 510.39 1097.35 508.407 1095.01C506.419 1092.66 505.178 1089.58 505.018 1086.59M514.924 1073.06C511.89 1073.41 509.342 1075.23 507.572 1077.78C505.798 1080.35 504.859 1083.58 505.018 1086.59" fill="#0E0E0E"/>
<path fill-rule="evenodd" clip-rule="evenodd" d="M781.806 774.482C784.766 778.048 786.567 782.917 785.925 787.744L785.924 787.745C785.374 791.83 783.095 795.687 780.011 798.362C776.928 801.035 772.932 802.616 768.921 801.931L768.919 801.93C764.538 801.172 761.296 797.919 759.418 793.962C757.54 790.005 756.946 785.194 757.969 781.03C758.629 778.321 760.098 775.437 762.179 773.155C764.26 770.873 767.016 769.129 770.25 768.867M781.806 774.482C778.856 770.927 774.614 768.511 770.25 768.867L781.806 774.482ZM780.267 775.759C777.586 772.529 773.927 770.573 770.412 770.86L770.412 770.86C767.821 771.07 765.504 772.477 763.656 774.503C761.808 776.53 760.494 779.111 759.912 781.504L759.911 781.506C759.007 785.187 759.527 789.528 761.225 793.105C762.923 796.682 765.717 799.346 769.259 799.959C772.527 800.517 775.938 799.246 778.701 796.851C781.461 794.457 783.464 791.026 783.942 787.479C784.498 783.303 782.938 778.978 780.267 775.759Z" fill="white"/>
<path fill-rule="evenodd" clip-rule="evenodd" d="M355.334 527.65C358.294 531.216 360.096 536.085 359.453 540.912L359.453 540.913C358.903 544.998 356.624 548.854 353.539 551.53C350.457 554.203 346.461 555.784 342.449 555.099L342.447 555.098C338.067 554.34 334.824 551.087 332.946 547.13C331.068 543.173 330.475 538.362 331.497 534.198C332.157 531.489 333.627 528.604 335.707 526.323C337.788 524.041 340.545 522.297 343.778 522.035M355.334 527.65C352.384 524.095 348.143 521.679 343.778 522.035L355.334 527.65ZM353.795 528.927C351.115 525.697 347.455 523.741 343.941 524.028L343.94 524.028C341.35 524.238 339.032 525.645 337.185 527.671C335.336 529.698 334.023 532.279 333.44 534.672L333.44 534.674C332.536 538.355 333.056 542.696 334.753 546.273C336.451 549.85 339.246 552.514 342.787 553.127C346.055 553.685 349.467 552.414 352.229 550.019C354.989 547.625 356.993 544.194 357.47 540.647C358.026 536.471 356.467 532.145 353.795 528.927Z" fill="white"/>
<path d="M595.786 724.039C595.578 724.06 594.669 724.137 593.76 724.203C589.74 724.499 583.902 725.584 579.521 726.844C576.804 727.622 573.091 728.872 570.758 729.782C570.276 729.968 569.641 730.22 569.334 730.33C569.038 730.439 568.37 730.713 567.855 730.932C567.341 731.151 566.749 731.393 566.541 731.48C566.333 731.557 565.763 731.798 565.281 732.028C564.799 732.247 564.23 732.5 564.011 732.576C563.014 732.938 558.95 735.042 556.245 736.599C554.93 737.355 552.269 738.988 550.275 740.248C547.11 742.254 546.584 742.572 543.627 744.347C540.209 746.397 538.884 747.164 537.46 747.92C536.923 748.216 536.058 748.676 535.543 748.961C534.426 749.575 529.278 752.151 528.04 752.71C525.28 753.959 524.524 754.299 523.33 754.792C520.899 755.8 518.368 756.776 517.142 757.181C516.813 757.291 515.805 757.641 514.896 757.948C507.7 760.403 499.069 762.256 492.935 762.672C490.821 762.815 485.859 762.749 484.227 762.552C477.414 761.751 471.893 759.68 467.227 756.173C464.423 754.069 461.948 751.405 460.009 748.413C458.958 746.802 458.169 745.673 458.081 745.673C457.95 745.673 457.983 746.682 458.158 747.843C458.235 748.424 458.388 749.674 458.487 750.605C459.494 760.294 461.115 767.648 463.81 774.662C467.687 784.767 473.865 793.393 481.05 798.73C487.754 803.717 495.235 806.446 504.655 807.355C507.316 807.608 513.341 807.608 516.265 807.344C523.243 806.731 530.691 805.163 538.281 802.719C540.253 802.084 544.634 800.571 545.072 800.374C545.226 800.308 546.135 799.968 547.099 799.607C548.873 798.96 549.443 798.73 554.054 796.911C566.497 791.99 575.599 788.965 584.395 786.828C585.271 786.619 586.377 786.345 586.859 786.225C590.003 785.447 595.282 784.537 598.798 784.175C601.427 783.901 607.309 783.901 609.303 784.175C615.25 784.986 619.489 787.419 621.527 791.19C622.72 793.393 623.159 796.012 622.939 799.475C622.786 802.018 622.458 803.793 621.746 806.007C621.373 807.147 621.198 807.892 621.275 807.969C621.472 808.156 622.118 807.531 624.09 805.24C631.253 796.933 635.547 788.406 637.617 778.389C637.902 776.986 638.022 776.076 638.23 773.807C638.449 771.396 638.449 766.727 638.23 765.105C638.143 764.437 638.022 763.33 637.956 762.65C637.234 755.329 633.915 746.177 629.577 739.591C628.219 737.53 627.025 736.051 625.305 734.297C621.702 730.604 618.076 728.269 612.873 726.285C610.573 725.419 606.948 724.587 603.946 724.236C602.523 724.071 596.761 723.929 595.786 724.039ZM610.026 738.33C612.282 738.549 615.196 739.448 617.364 740.599C621.943 743.032 625.579 747.405 627.989 753.4C628.657 755.066 628.734 755.263 629.008 756.14C630.662 761.313 631.319 766.914 630.946 772.689C630.76 775.627 630.432 777.851 629.468 782.663C629.15 784.285 628.81 786.039 628.712 786.554C628.46 787.913 628.186 788.581 627.868 788.581C627.649 788.581 627.551 788.417 627.113 787.321C625.514 783.288 623.4 780.526 620.355 778.465C614.746 774.673 605.589 773.665 593.267 775.484C589.565 776.032 589.718 776.021 589.576 775.835C589.499 775.736 589.433 775.627 589.433 775.594C589.433 775.44 593.125 772.755 595.074 771.495C595.797 771.023 596.542 770.53 596.717 770.41C597.385 769.938 600.496 768.207 602.249 767.341C603.99 766.464 606.499 765.368 607.923 764.853C608.295 764.722 608.602 764.568 608.602 764.513C608.602 764.469 606.082 762.223 603.005 759.527C599.938 756.83 597.451 754.595 597.506 754.551C597.681 754.375 601.449 753.367 603.782 752.863C606.751 752.216 609.576 751.844 613.892 751.526C614.505 751.482 614.735 751.427 614.735 751.318C614.735 751.142 613.903 749.159 613.388 748.084C611.964 745.136 609.642 741.794 607.298 739.295C606.783 738.736 606.553 738.418 606.652 738.385C607.123 738.221 608.689 738.199 610.026 738.33Z" fill="url(#paint0_linear_1355_540)"/>
<path d="M116.258 79.9595C113.569 78.8251 117.443 66.9244 105.007 50.8573C104.659 49.1519 119.163 66.285 121.338 67.6875C123.513 69.09 137.984 54.7572 150.001 47C134.712 58.107 118.947 81.0939 116.258 79.9595Z" fill="#0E0E0E"/>
<path fill-rule="evenodd" clip-rule="evenodd" d="M882.254 656.73L882.3 656.686C885.071 654.054 888.577 652.898 892.348 652.898C896.22 652.898 899.936 653.97 902.742 656.775C905.596 659.63 906.619 663.475 906.619 667.423C906.619 671.397 905.495 675.163 902.658 678.027C899.899 680.902 896.235 682.075 892.348 682.075C888.474 682.075 884.855 680.858 882.119 677.979C879.384 675.1 878.331 671.349 878.331 667.423C878.331 663.475 879.354 659.63 882.209 656.775L882.254 656.73Z" fill="url(#paint1_linear_1355_540)"/>
<path fill-rule="evenodd" clip-rule="evenodd" d="M801.65 581.778H826.763V644.436C826.763 656.438 824.327 666.298 818.347 672.822C812.561 679.228 804.626 682.202 795.22 682.202C784.706 682.202 775.941 679.501 770.069 673.085L770.039 673.052L770.01 673.019C764.384 666.65 762.026 657.527 762.026 646.595V581.778H788.028V643.801C788.028 650.569 788.989 654.116 789.963 655.604C790.617 656.535 791.885 657.47 795.093 657.47C797.938 657.47 799.059 656.594 799.713 655.55C800.758 653.786 801.65 650.154 801.65 643.801V581.778Z" fill="url(#paint2_linear_1355_540)"/>
<path fill-rule="evenodd" clip-rule="evenodd" d="M670.646 618.819L664.104 581.778H636.029L658.054 681.313H677.766L688.243 640.155L698.692 681.313H717.893L740.059 581.778H713.312L707.409 618.241L698.79 581.778H679.737L670.646 618.819Z" fill="url(#paint3_linear_1355_540)"/>
<path fill-rule="evenodd" clip-rule="evenodd" d="M528.714 680.678H502.712V581.778H528.714V618.354H542.971V581.778H568.973V680.678H542.971V643.086H528.714V680.678Z" fill="url(#paint4_linear_1355_540)"/>
<path fill-rule="evenodd" clip-rule="evenodd" d="M474.243 649.187L474.208 649.144C472.941 647.61 471.27 646.092 469.128 644.615L469.095 644.592L469.061 644.568C466.794 642.949 464.264 641.274 461.466 639.546L461.437 639.528L461.409 639.51C458.323 637.547 455.435 635.263 452.746 632.666L452.715 632.636L452.684 632.605C449.906 629.827 447.609 626.586 445.778 622.923C443.735 618.838 442.837 614.088 442.837 608.876C442.837 604.098 443.536 599.743 445.146 595.984L445.16 595.954L445.173 595.923C446.797 592.27 449.053 589.162 452.003 586.746C454.871 584.314 458.221 582.607 461.966 581.587C465.582 580.518 469.39 580 473.364 580C478.008 580 482.405 580.455 486.537 581.394C490.603 582.318 494.21 583.616 497.229 585.386L500.783 587.469L492.271 611.697L486.864 607.881C486.08 607.327 484.527 606.583 481.859 605.799L481.84 605.793L481.82 605.787C479.553 605.1 477 604.732 474.126 604.732C471.418 604.732 470.115 605.3 469.536 605.741C469.225 605.978 468.839 606.362 468.839 607.733C468.839 608.839 469.17 609.796 470.002 610.774C471.312 612.215 472.994 613.695 475.095 615.198C477.496 616.853 480.063 618.593 482.799 620.417C485.981 622.391 488.885 624.734 491.506 627.439C494.377 630.226 496.719 633.52 498.548 637.269C500.572 641.326 501.478 645.973 501.478 651.04C501.478 655.996 500.735 660.545 499.093 664.57C497.56 668.534 495.27 671.946 492.196 674.702L492.188 674.709C489.241 677.34 485.734 679.271 481.768 680.56C477.807 681.847 473.508 682.456 468.919 682.456C463.362 682.456 458.317 681.92 453.839 680.777L453.827 680.773L453.814 680.77C449.71 679.699 446.187 678.41 443.487 676.79L439.954 674.671L448.636 650.743L453.839 653.865C455.11 654.627 457.072 655.51 459.873 656.47C462.273 657.293 464.896 657.724 467.776 657.724C471.497 657.724 473.367 656.975 474.226 656.305C474.849 655.819 475.476 654.972 475.476 652.818C475.476 651.179 475.022 650.089 474.279 649.228L474.243 649.187Z" fill="url(#paint5_linear_1355_540)"/>
<path fill-rule="evenodd" clip-rule="evenodd" d="M420.769 606.51H399.687V680.678H373.685V606.51H352.603V595.355V585.845V581.778H420.769V606.51Z" fill="url(#paint6_linear_1355_540)"/>
<path fill-rule="evenodd" clip-rule="evenodd" d="M270.294 581.778H295.407V644.436C295.407 656.437 292.971 666.296 286.993 672.82C281.207 679.227 273.271 682.202 263.864 682.202C253.35 682.202 244.585 679.501 238.712 673.085L238.683 673.052L238.653 673.019C233.028 666.65 230.67 657.527 230.67 646.595V581.778H256.672V643.801C256.672 650.567 257.632 654.114 258.606 655.602C259.259 656.534 260.527 657.47 263.737 657.47C266.581 657.47 267.702 656.595 268.356 655.551C269.401 653.787 270.294 650.155 270.294 643.801V581.778Z" fill="url(#paint7_linear_1355_540)"/>
<path fill-rule="evenodd" clip-rule="evenodd" d="M200.436 581.778H226.438V651.421C226.438 655.581 226.078 659.472 225.325 663.069C224.635 666.689 223.424 669.992 221.605 672.881L221.582 672.917L221.559 672.953C219.65 675.872 217.112 678.175 214.02 679.831L213.958 679.865L213.895 679.896C210.634 681.526 206.848 682.202 202.769 682.202C199.966 682.202 197.171 681.912 194.39 681.336L194.372 681.333L194.355 681.329C191.647 680.749 189.11 679.911 186.769 678.792L183.001 676.99L189.552 653.046L195.241 656.568C196.126 657.116 197.264 657.47 198.832 657.47C199.138 657.47 199.348 657.446 199.483 657.422L199.488 657.404L199.504 657.35C200.059 655.5 200.436 652.47 200.436 647.992V581.778Z" fill="url(#paint8_linear_1355_540)"/>
<path fill-rule="evenodd" clip-rule="evenodd" d="M834.223 582.786L830.307 583.656V680.678H856.309V650.579H859.564C863.711 650.579 867.741 649.952 871.633 648.689C875.798 647.366 879.493 645.212 882.665 642.245C885.906 639.213 888.361 635.392 890.112 630.934C892.025 626.281 892.885 620.867 892.885 614.845C892.885 608.233 891.9 602.412 889.592 597.681C887.433 593.175 884.521 589.461 880.758 586.773C877.17 584.21 873.102 582.543 868.632 581.74C864.589 580.917 860.464 580.508 856.262 580.508C852.446 580.508 848.632 580.729 844.82 581.17C841.026 581.525 837.49 582.06 834.223 582.786ZM865.287 609.339L865.256 609.249C864.801 607.941 864.257 607.223 863.783 606.812L863.648 606.696L863.522 606.569C862.908 605.956 862.209 605.53 861.361 605.262C860.265 604.916 859.081 604.732 857.786 604.732C857.262 604.732 856.77 604.741 856.309 604.759V626.335C856.645 626.349 856.879 626.355 857.024 626.355C858.426 626.355 859.719 626.165 860.922 625.804C861.889 625.513 862.69 625.051 863.387 624.402C864.05 623.78 864.716 622.818 865.263 621.31C865.779 619.805 866.121 617.658 866.121 614.718C866.121 612.35 865.795 610.636 865.322 609.428L865.287 609.339Z" fill="url(#paint9_linear_1355_540)"/>
<path fill-rule="evenodd" clip-rule="evenodd" d="M590.494 678.634L590.55 678.665L590.606 678.695C595.462 681.278 601.092 682.456 607.305 682.456C619.187 682.456 628.669 677.846 634.951 668.434C641.078 659.378 643.801 646.752 643.801 631.228C643.801 623.923 643.144 617.213 641.785 611.127C640.507 604.939 638.46 599.489 635.535 594.901C632.57 590.165 628.693 586.458 623.914 583.907C619.061 581.232 613.463 580 607.305 580C595.283 580 585.718 584.592 579.503 594.069C573.571 603.112 570.936 615.717 570.936 631.228C570.936 638.531 571.552 645.267 572.817 651.413L572.819 651.42L572.82 651.428C574.102 657.56 576.153 663.004 579.062 667.66L579.075 667.68L579.088 667.7C582.043 672.33 585.848 676.008 590.494 678.634ZM616.318 619.69L616.317 619.683C615.852 616.113 615.098 613.231 614.133 610.956L614.097 610.873L614.065 610.789C613.187 608.491 612.121 607.005 611.022 606.056L610.974 606.015L610.927 605.972C610.089 605.209 609.003 604.732 607.305 604.732C605.827 604.732 604.738 605.111 603.834 605.76C602.88 606.447 601.844 607.647 600.888 609.709C598.916 613.962 597.7 620.958 597.7 631.228C597.7 635.526 597.944 639.496 598.419 643.147C598.883 646.621 599.635 649.467 600.605 651.754C601.567 654.021 602.656 655.552 603.757 656.562C604.611 657.285 605.692 657.724 607.305 657.724C608.868 657.724 610.016 657.342 610.944 656.713C611.908 656.059 612.928 654.937 613.867 653.025C615.793 649.107 617.037 642.076 617.037 631.228C617.037 627.104 616.795 623.263 616.319 619.697L616.318 619.69Z" fill="url(#paint10_linear_1355_540)"/>
<path d="M352.603 595.355V585.845L351.819 585.386C348.8 583.616 345.193 582.318 341.127 581.394C336.995 580.455 332.598 580 327.954 580C323.98 580 320.172 580.518 316.556 581.587C312.811 582.607 309.46 584.314 306.592 586.747C303.643 589.162 301.387 592.27 299.763 595.923L299.75 595.954L299.736 595.984C298.126 599.743 297.427 604.098 297.427 608.876C297.427 614.088 298.325 618.838 300.368 622.923C302.199 626.586 304.496 629.827 307.274 632.605L307.305 632.636L307.336 632.666C310.025 635.263 312.913 637.547 315.999 639.51L316.027 639.528L316.056 639.546C318.854 641.274 321.384 642.949 323.651 644.568L323.684 644.592L323.718 644.615C325.86 646.092 327.531 647.61 328.798 649.144L328.833 649.187L328.869 649.228C329.612 650.089 330.066 651.179 330.066 652.818C330.066 654.972 329.439 655.819 328.816 656.305C327.957 656.975 326.087 657.724 322.366 657.724C319.486 657.724 316.863 657.293 314.463 656.47C311.662 655.51 309.7 654.627 308.429 653.865L303.225 650.743L294.544 674.671L298.077 676.79C300.777 678.41 304.3 679.699 308.404 680.77L308.417 680.773L308.429 680.777C312.906 681.92 317.952 682.456 323.509 682.456C328.098 682.456 332.397 681.847 336.358 680.56C340.324 679.271 343.831 677.34 346.778 674.709L346.786 674.702C349.86 671.946 352.15 668.534 353.683 664.57C355.325 660.545 356.068 655.996 356.068 651.04C356.068 645.974 355.162 641.327 353.139 637.27C351.309 633.521 348.968 630.227 346.096 627.439C343.475 624.734 340.571 622.391 337.389 620.417C334.653 618.593 332.085 616.853 329.684 615.198C327.584 613.695 325.902 612.215 324.592 610.775C323.76 609.797 323.429 608.84 323.429 607.733C323.429 606.957 323.512 606.58 323.641 606.357C323.779 606.03 323.963 605.866 324.126 605.741C324.705 605.3 326.008 604.732 328.716 604.732C331.59 604.732 334.143 605.1 336.41 605.787L336.43 605.793L336.449 605.799C339.117 606.583 340.67 607.327 341.454 607.881L346.861 611.697L352.603 595.355Z" fill="url(#paint11_linear_1355_540)"/>
<path d="M475.865 876.518H470V855.496H485.275V858.182H475.865V864.679H483.133V867.35H475.865V876.518Z" fill="#EB96E7"/>
<path d="M475.865 876.518H470V855.496H485.275V858.182H475.865V864.679H483.133V867.35H475.865V876.518Z" fill="url(#paint12_linear_1355_540)"/>
<path d="M510.198 865.978C510.198 867.672 509.902 869.2 509.311 870.562C508.72 871.915 507.903 873.063 506.859 874.007C505.815 874.951 504.579 875.676 503.151 876.182C501.723 876.689 500.177 876.942 498.512 876.942C496.848 876.942 495.301 876.689 493.873 876.182C492.445 875.676 491.209 874.951 490.165 874.007C489.121 873.063 488.304 871.915 487.713 870.562C487.122 869.2 486.827 867.672 486.827 865.978C486.827 864.255 487.117 862.718 487.698 861.365C488.289 860.002 489.102 858.854 490.136 857.92C491.18 856.976 492.416 856.255 493.844 855.759C495.272 855.253 496.828 855 498.512 855C500.196 855 501.752 855.253 503.18 855.759C504.609 856.255 505.84 856.976 506.874 857.92C507.918 858.854 508.73 860.002 509.311 861.365C509.902 862.718 510.198 864.255 510.198 865.978ZM504.229 865.978C504.229 865.336 504.2 864.679 504.141 864.007C504.082 863.336 503.973 862.684 503.816 862.051C503.658 861.418 503.441 860.825 503.166 860.27C502.9 859.715 502.555 859.234 502.132 858.825C501.708 858.406 501.196 858.08 500.595 857.847C500.004 857.603 499.31 857.482 498.512 857.482C497.705 857.482 497 857.603 496.4 857.847C495.799 858.08 495.287 858.401 494.863 858.81C494.44 859.219 494.095 859.701 493.829 860.255C493.563 860.81 493.351 861.404 493.194 862.036C493.046 862.659 492.943 863.311 492.884 863.993C492.824 864.664 492.795 865.326 492.795 865.978C492.795 866.62 492.824 867.277 492.884 867.949C492.943 868.62 493.051 869.273 493.209 869.905C493.366 870.528 493.578 871.117 493.844 871.672C494.12 872.226 494.469 872.713 494.893 873.131C495.316 873.54 495.823 873.866 496.414 874.109C497.015 874.353 497.714 874.474 498.512 874.474C499.29 874.474 499.97 874.353 500.551 874.109C501.132 873.856 501.634 873.521 502.058 873.102C502.481 872.674 502.831 872.182 503.107 871.628C503.392 871.063 503.614 870.47 503.771 869.847C503.939 869.214 504.057 868.567 504.126 867.905C504.195 867.243 504.229 866.601 504.229 865.978Z" fill="#EB96E7"/>
<path d="M510.198 865.978C510.198 867.672 509.902 869.2 509.311 870.562C508.72 871.915 507.903 873.063 506.859 874.007C505.815 874.951 504.579 875.676 503.151 876.182C501.723 876.689 500.177 876.942 498.512 876.942C496.848 876.942 495.301 876.689 493.873 876.182C492.445 875.676 491.209 874.951 490.165 874.007C489.121 873.063 488.304 871.915 487.713 870.562C487.122 869.2 486.827 867.672 486.827 865.978C486.827 864.255 487.117 862.718 487.698 861.365C488.289 860.002 489.102 858.854 490.136 857.92C491.18 856.976 492.416 856.255 493.844 855.759C495.272 855.253 496.828 855 498.512 855C500.196 855 501.752 855.253 503.18 855.759C504.609 856.255 505.84 856.976 506.874 857.92C507.918 858.854 508.73 860.002 509.311 861.365C509.902 862.718 510.198 864.255 510.198 865.978ZM504.229 865.978C504.229 865.336 504.2 864.679 504.141 864.007C504.082 863.336 503.973 862.684 503.816 862.051C503.658 861.418 503.441 860.825 503.166 860.27C502.9 859.715 502.555 859.234 502.132 858.825C501.708 858.406 501.196 858.08 500.595 857.847C500.004 857.603 499.31 857.482 498.512 857.482C497.705 857.482 497 857.603 496.4 857.847C495.799 858.08 495.287 858.401 494.863 858.81C494.44 859.219 494.095 859.701 493.829 860.255C493.563 860.81 493.351 861.404 493.194 862.036C493.046 862.659 492.943 863.311 492.884 863.993C492.824 864.664 492.795 865.326 492.795 865.978C492.795 866.62 492.824 867.277 492.884 867.949C492.943 868.62 493.051 869.273 493.209 869.905C493.366 870.528 493.578 871.117 493.844 871.672C494.12 872.226 494.469 872.713 494.893 873.131C495.316 873.54 495.823 873.866 496.414 874.109C497.015 874.353 497.714 874.474 498.512 874.474C499.29 874.474 499.97 874.353 500.551 874.109C501.132 873.856 501.634 873.521 502.058 873.102C502.481 872.674 502.831 872.182 503.107 871.628C503.392 871.063 503.614 870.47 503.771 869.847C503.939 869.214 504.057 868.567 504.126 867.905C504.195 867.243 504.229 866.601 504.229 865.978Z" fill="url(#paint13_linear_1355_540)"/>
<path d="M531.043 876.518H525.059L520.066 869.146L514.955 876.518H510.818L518.5 866.854L510.818 855.496H516.801L521.632 862.635L526.906 855.496H531.043L523.198 864.942L531.043 876.518Z" fill="#EB96E7"/>
<path d="M531.043 876.518H525.059L520.066 869.146L514.955 876.518H510.818L518.5 866.854L510.818 855.496H516.801L521.632 862.635L526.906 855.496H531.043L523.198 864.942L531.043 876.518Z" fill="url(#paint14_linear_1355_540)"/>
<path d="M539.448 876.518H533.584V855.496H545.077C546.072 855.496 547.022 855.628 547.928 855.891C548.844 856.153 549.652 856.552 550.351 857.088C551.05 857.613 551.607 858.28 552.02 859.088C552.444 859.886 552.656 860.825 552.656 861.905C552.656 862.586 552.557 863.229 552.36 863.832C552.163 864.426 551.887 864.971 551.533 865.467C551.188 865.964 550.779 866.411 550.307 866.81C549.834 867.209 549.317 867.545 548.756 867.818C548.194 868.09 547.598 868.299 546.968 868.445C546.348 868.591 545.717 868.664 545.077 868.664H539.448V876.518ZM546.717 861.905C546.717 860.552 546.367 859.491 545.668 858.723C544.979 857.944 543.935 857.555 542.536 857.555H539.448V866.679H542.536C543.285 866.679 543.92 866.562 544.442 866.328C544.974 866.085 545.407 865.749 545.742 865.321C546.077 864.893 546.323 864.392 546.48 863.818C546.638 863.234 546.717 862.596 546.717 861.905Z" fill="#EB96E7"/>
<path d="M539.448 876.518H533.584V855.496H545.077C546.072 855.496 547.022 855.628 547.928 855.891C548.844 856.153 549.652 856.552 550.351 857.088C551.05 857.613 551.607 858.28 552.02 859.088C552.444 859.886 552.656 860.825 552.656 861.905C552.656 862.586 552.557 863.229 552.36 863.832C552.163 864.426 551.887 864.971 551.533 865.467C551.188 865.964 550.779 866.411 550.307 866.81C549.834 867.209 549.317 867.545 548.756 867.818C548.194 868.09 547.598 868.299 546.968 868.445C546.348 868.591 545.717 868.664 545.077 868.664H539.448V876.518ZM546.717 861.905C546.717 860.552 546.367 859.491 545.668 858.723C544.979 857.944 543.935 857.555 542.536 857.555H539.448V866.679H542.536C543.285 866.679 543.92 866.562 544.442 866.328C544.974 866.085 545.407 865.749 545.742 865.321C546.077 864.893 546.323 864.392 546.48 863.818C546.638 863.234 546.717 862.596 546.717 861.905Z" fill="url(#paint15_linear_1355_540)"/>
<path d="M577.918 865.978C577.918 867.672 577.622 869.2 577.031 870.562C576.44 871.915 575.623 873.063 574.579 874.007C573.535 874.951 572.299 875.676 570.871 876.182C569.443 876.689 567.897 876.942 566.232 876.942C564.568 876.942 563.021 876.689 561.593 876.182C560.165 875.676 558.929 874.951 557.885 874.007C556.841 873.063 556.024 871.915 555.433 870.562C554.842 869.2 554.547 867.672 554.547 865.978C554.547 864.255 554.837 862.718 555.418 861.365C556.009 860.002 556.822 858.854 557.856 857.92C558.9 856.976 560.136 856.255 561.564 855.759C562.992 855.253 564.548 855 566.232 855C567.916 855 569.472 855.253 570.9 855.759C572.329 856.255 573.56 856.976 574.594 857.92C575.638 858.854 576.45 860.002 577.031 861.365C577.622 862.718 577.918 864.255 577.918 865.978ZM571.949 865.978C571.949 865.336 571.92 864.679 571.861 864.007C571.802 863.336 571.693 862.684 571.536 862.051C571.378 861.418 571.161 860.825 570.886 860.27C570.62 859.715 570.275 859.234 569.852 858.825C569.428 858.406 568.916 858.08 568.315 857.847C567.724 857.603 567.03 857.482 566.232 857.482C565.425 857.482 564.72 857.603 564.12 857.847C563.519 858.08 563.007 858.401 562.583 858.81C562.16 859.219 561.815 859.701 561.549 860.255C561.283 860.81 561.071 861.404 560.914 862.036C560.766 862.659 560.663 863.311 560.604 863.993C560.544 864.664 560.515 865.326 560.515 865.978C560.515 866.62 560.544 867.277 560.604 867.949C560.663 868.62 560.771 869.273 560.929 869.905C561.086 870.528 561.298 871.117 561.564 871.672C561.84 872.226 562.189 872.713 562.613 873.131C563.036 873.54 563.543 873.866 564.134 874.109C564.735 874.353 565.434 874.474 566.232 874.474C567.01 874.474 567.69 874.353 568.271 874.109C568.852 873.856 569.354 873.521 569.778 873.102C570.201 872.674 570.551 872.182 570.827 871.628C571.112 871.063 571.334 870.47 571.491 869.847C571.659 869.214 571.777 868.567 571.846 867.905C571.915 867.243 571.949 866.601 571.949 865.978Z" fill="#EB96E7"/>
<path d="M577.918 865.978C577.918 867.672 577.622 869.2 577.031 870.562C576.44 871.915 575.623 873.063 574.579 874.007C573.535 874.951 572.299 875.676 570.871 876.182C569.443 876.689 567.897 876.942 566.232 876.942C564.568 876.942 563.021 876.689 561.593 876.182C560.165 875.676 558.929 874.951 557.885 874.007C556.841 873.063 556.024 871.915 555.433 870.562C554.842 869.2 554.547 867.672 554.547 865.978C554.547 864.255 554.837 862.718 555.418 861.365C556.009 860.002 556.822 858.854 557.856 857.92C558.9 856.976 560.136 856.255 561.564 855.759C562.992 855.253 564.548 855 566.232 855C567.916 855 569.472 855.253 570.9 855.759C572.329 856.255 573.56 856.976 574.594 857.92C575.638 858.854 576.45 860.002 577.031 861.365C577.622 862.718 577.918 864.255 577.918 865.978ZM571.949 865.978C571.949 865.336 571.92 864.679 571.861 864.007C571.802 863.336 571.693 862.684 571.536 862.051C571.378 861.418 571.161 860.825 570.886 860.27C570.62 859.715 570.275 859.234 569.852 858.825C569.428 858.406 568.916 858.08 568.315 857.847C567.724 857.603 567.03 857.482 566.232 857.482C565.425 857.482 564.72 857.603 564.12 857.847C563.519 858.08 563.007 858.401 562.583 858.81C562.16 859.219 561.815 859.701 561.549 860.255C561.283 860.81 561.071 861.404 560.914 862.036C560.766 862.659 560.663 863.311 560.604 863.993C560.544 864.664 560.515 865.326 560.515 865.978C560.515 866.62 560.544 867.277 560.604 867.949C560.663 868.62 560.771 869.273 560.929 869.905C561.086 870.528 561.298 871.117 561.564 871.672C561.84 872.226 562.189 872.713 562.613 873.131C563.036 873.54 563.543 873.866 564.134 874.109C564.735 874.353 565.434 874.474 566.232 874.474C567.01 874.474 567.69 874.353 568.271 874.109C568.852 873.856 569.354 873.521 569.778 873.102C570.201 872.674 570.551 872.182 570.827 871.628C571.112 871.063 571.334 870.47 571.491 869.847C571.659 869.214 571.777 868.567 571.846 867.905C571.915 867.243 571.949 866.601 571.949 865.978Z" fill="url(#paint16_linear_1355_540)"/>
<path d="M587.432 876.518H581.567V855.496H587.432V876.518Z" fill="#EB96E7"/>
<path d="M587.432 876.518H581.567V855.496H587.432V876.518Z" fill="url(#paint17_linear_1355_540)"/>
<path d="M594.981 876.518H592.262V855.496H596.074L609 869.934V855.496H611.704V876.518H607.892L594.981 862.095V876.518Z" fill="#EB96E7"/>
<path d="M594.981 876.518H592.262V855.496H596.074L609 869.934V855.496H611.704V876.518H607.892L594.981 862.095V876.518Z" fill="url(#paint18_linear_1355_540)"/>
<path d="M626.359 876.518H620.494V858.182H614.703V855.496H632.15V858.182H626.359V876.518Z" fill="#EB96E7"/>
<path d="M626.359 876.518H620.494V858.182H614.703V855.496H632.15V858.182H626.359V876.518Z" fill="url(#paint19_linear_1355_540)"/>
<path d="M638 874.328C638 874.698 637.931 875.049 637.793 875.38C637.655 875.701 637.463 875.983 637.217 876.226C636.971 876.46 636.685 876.645 636.36 876.781C636.035 876.927 635.686 877 635.311 877C634.937 877 634.587 876.927 634.262 876.781C633.937 876.645 633.652 876.46 633.406 876.226C633.159 875.983 632.967 875.701 632.829 875.38C632.692 875.049 632.623 874.698 632.623 874.328C632.623 873.968 632.692 873.628 632.829 873.307C632.967 872.976 633.159 872.693 633.406 872.46C633.652 872.217 633.937 872.027 634.262 871.891C634.587 871.745 634.937 871.672 635.311 871.672C635.686 871.672 636.035 871.745 636.36 871.891C636.685 872.027 636.971 872.217 637.217 872.46C637.463 872.693 637.655 872.976 637.793 873.307C637.931 873.628 638 873.968 638 874.328Z" fill="#EB96E7"/>
<path d="M638 874.328C638 874.698 637.931 875.049 637.793 875.38C637.655 875.701 637.463 875.983 637.217 876.226C636.971 876.46 636.685 876.645 636.36 876.781C636.035 876.927 635.686 877 635.311 877C634.937 877 634.587 876.927 634.262 876.781C633.937 876.645 633.652 876.46 633.406 876.226C633.159 875.983 632.967 875.701 632.829 875.38C632.692 875.049 632.623 874.698 632.623 874.328C632.623 873.968 632.692 873.628 632.829 873.307C632.967 872.976 633.159 872.693 633.406 872.46C633.652 872.217 633.937 872.027 634.262 871.891C634.587 871.745 634.937 871.672 635.311 871.672C635.686 871.672 636.035 871.745 636.36 871.891C636.685 872.027 636.971 872.217 637.217 872.46C637.463 872.693 637.655 872.976 637.793 873.307C637.931 873.628 638 873.968 638 874.328Z" fill="url(#paint20_linear_1355_540)"/>
<path d="M864.265 221.861C845.124 206.556 812.836 195.838 784.102 208.485C762.82 217.831 743.336 240.081 742.094 263.402C741.109 281.28 751.172 294.655 744.749 300.4C740.039 304.601 733.016 298.857 716.529 297.785L716.384 297.776C708.135 297.254 686.443 295.881 675.035 307.345C663.045 319.349 671.471 336.54 663.506 347.515C663.506 347.515 661.632 349.659 660.475 350.645C659.49 351.459 658.634 352.016 657.692 352.402C648.1 356.346 641.077 352.488 629.172 353.56C624.976 353.946 622.749 354.803 616.711 356.689C584.766 366.678 557.703 370.451 558.002 373.238C558.431 377.182 614.014 374.652 649.342 372.294C701.028 368.822 710.449 365.564 743.422 364.921C781.961 364.192 784.231 368.307 830.95 370.322C893.47 373.023 911.851 366.547 956.9 365.99C955.401 361.789 953.887 357.744 952.26 353.5C944.894 334.294 935.778 314.719 925.243 295.256C915.951 300.529 903.661 305.03 899.251 305.459C886.318 306.702 901.734 251.784 864.265 221.861Z" fill="white"/>
<defs>
<linearGradient id="paint0_linear_1355_540" x1="210.001" y1="765.813" x2="896.001" y2="765.813" gradientUnits="userSpaceOnUse">
<stop stop-color="#CA6CD9"/>
<stop offset="0.203125" stop-color="#00C5E0"/>
<stop offset="0.453125" stop-color="#29E8DC"/>
<stop offset="0.739583" stop-color="#397AC7"/>
<stop offset="1" stop-color="#DE87EC"/>
</linearGradient>
<linearGradient id="paint1_linear_1355_540" x1="183.001" y1="631" x2="925.501" y2="631" gradientUnits="userSpaceOnUse">
<stop stop-color="#CA6CD9"/>
<stop offset="0.203125" stop-color="#00C5E0"/>
<stop offset="0.453125" stop-color="#29E8DC"/>
<stop offset="0.739583" stop-color="#397AC7"/>
<stop offset="1" stop-color="#DE87EC"/>
</linearGradient>
<linearGradient id="paint2_linear_1355_540" x1="183.001" y1="631" x2="925.501" y2="631" gradientUnits="userSpaceOnUse">
<stop stop-color="#CA6CD9"/>
<stop offset="0.203125" stop-color="#00C5E0"/>
<stop offset="0.453125" stop-color="#29E8DC"/>
<stop offset="0.739583" stop-color="#397AC7"/>
<stop offset="1" stop-color="#DE87EC"/>
</linearGradient>
<linearGradient id="paint3_linear_1355_540" x1="183.001" y1="631" x2="925.501" y2="631" gradientUnits="userSpaceOnUse">
<stop stop-color="#CA6CD9"/>
<stop offset="0.203125" stop-color="#00C5E0"/>
<stop offset="0.453125" stop-color="#29E8DC"/>
<stop offset="0.739583" stop-color="#397AC7"/>
<stop offset="1" stop-color="#DE87EC"/>
</linearGradient>
<linearGradient id="paint4_linear_1355_540" x1="183.001" y1="631" x2="925.501" y2="631" gradientUnits="userSpaceOnUse">
<stop stop-color="#CA6CD9"/>
<stop offset="0.203125" stop-color="#00C5E0"/>
<stop offset="0.453125" stop-color="#29E8DC"/>
<stop offset="0.739583" stop-color="#397AC7"/>
<stop offset="1" stop-color="#DE87EC"/>
</linearGradient>
<linearGradient id="paint5_linear_1355_540" x1="183.001" y1="631" x2="925.501" y2="631" gradientUnits="userSpaceOnUse">
<stop stop-color="#CA6CD9"/>
<stop offset="0.203125" stop-color="#00C5E0"/>
<stop offset="0.453125" stop-color="#29E8DC"/>
<stop offset="0.739583" stop-color="#397AC7"/>
<stop offset="1" stop-color="#DE87EC"/>
</linearGradient>
<linearGradient id="paint6_linear_1355_540" x1="183.001" y1="631" x2="925.501" y2="631" gradientUnits="userSpaceOnUse">
<stop stop-color="#CA6CD9"/>
<stop offset="0.203125" stop-color="#00C5E0"/>
<stop offset="0.453125" stop-color="#29E8DC"/>
<stop offset="0.739583" stop-color="#397AC7"/>
<stop offset="1" stop-color="#DE87EC"/>
</linearGradient>
<linearGradient id="paint7_linear_1355_540" x1="183.001" y1="631" x2="925.501" y2="631" gradientUnits="userSpaceOnUse">
<stop stop-color="#CA6CD9"/>
<stop offset="0.203125" stop-color="#00C5E0"/>
<stop offset="0.453125" stop-color="#29E8DC"/>
<stop offset="0.739583" stop-color="#397AC7"/>
<stop offset="1" stop-color="#DE87EC"/>
</linearGradient>
<linearGradient id="paint8_linear_1355_540" x1="183.001" y1="631" x2="925.501" y2="631" gradientUnits="userSpaceOnUse">
<stop stop-color="#CA6CD9"/>
<stop offset="0.203125" stop-color="#00C5E0"/>
<stop offset="0.453125" stop-color="#29E8DC"/>
<stop offset="0.739583" stop-color="#397AC7"/>
<stop offset="1" stop-color="#DE87EC"/>
</linearGradient>
<linearGradient id="paint9_linear_1355_540" x1="183.001" y1="631" x2="925.501" y2="631" gradientUnits="userSpaceOnUse">
<stop stop-color="#CA6CD9"/>
<stop offset="0.203125" stop-color="#00C5E0"/>
<stop offset="0.453125" stop-color="#29E8DC"/>
<stop offset="0.739583" stop-color="#397AC7"/>
<stop offset="1" stop-color="#DE87EC"/>
</linearGradient>
<linearGradient id="paint10_linear_1355_540" x1="183.001" y1="631" x2="925.501" y2="631" gradientUnits="userSpaceOnUse">
<stop stop-color="#CA6CD9"/>
<stop offset="0.203125" stop-color="#00C5E0"/>
<stop offset="0.453125" stop-color="#29E8DC"/>
<stop offset="0.739583" stop-color="#397AC7"/>
<stop offset="1" stop-color="#DE87EC"/>
</linearGradient>
<linearGradient id="paint11_linear_1355_540" x1="183.001" y1="631" x2="925.501" y2="631" gradientUnits="userSpaceOnUse">
<stop stop-color="#CA6CD9"/>
<stop offset="0.203125" stop-color="#00C5E0"/>
<stop offset="0.453125" stop-color="#29E8DC"/>
<stop offset="0.739583" stop-color="#397AC7"/>
<stop offset="1" stop-color="#DE87EC"/>
</linearGradient>
<linearGradient id="paint12_linear_1355_540" x1="239.038" y1="865.951" x2="877.908" y2="865.952" gradientUnits="userSpaceOnUse">
<stop stop-color="#CA6CD9"/>
<stop offset="0.203125" stop-color="#00C5E0"/>
<stop offset="0.453125" stop-color="#29E8DC"/>
<stop offset="0.739583" stop-color="#397AC7"/>
<stop offset="1" stop-color="#DE87EC"/>
</linearGradient>
<linearGradient id="paint13_linear_1355_540" x1="239.038" y1="865.951" x2="877.908" y2="865.952" gradientUnits="userSpaceOnUse">
<stop stop-color="#CA6CD9"/>
<stop offset="0.203125" stop-color="#00C5E0"/>
<stop offset="0.453125" stop-color="#29E8DC"/>
<stop offset="0.739583" stop-color="#397AC7"/>
<stop offset="1" stop-color="#DE87EC"/>
</linearGradient>
<linearGradient id="paint14_linear_1355_540" x1="239.038" y1="865.951" x2="877.908" y2="865.952" gradientUnits="userSpaceOnUse">
<stop stop-color="#CA6CD9"/>
<stop offset="0.203125" stop-color="#00C5E0"/>
<stop offset="0.453125" stop-color="#29E8DC"/>
<stop offset="0.739583" stop-color="#397AC7"/>
<stop offset="1" stop-color="#DE87EC"/>
</linearGradient>
<linearGradient id="paint15_linear_1355_540" x1="239.038" y1="865.951" x2="877.908" y2="865.952" gradientUnits="userSpaceOnUse">
<stop stop-color="#CA6CD9"/>
<stop offset="0.203125" stop-color="#00C5E0"/>
<stop offset="0.453125" stop-color="#29E8DC"/>
<stop offset="0.739583" stop-color="#397AC7"/>
<stop offset="1" stop-color="#DE87EC"/>
</linearGradient>
<linearGradient id="paint16_linear_1355_540" x1="239.038" y1="865.951" x2="877.908" y2="865.952" gradientUnits="userSpaceOnUse">
<stop stop-color="#CA6CD9"/>
<stop offset="0.203125" stop-color="#00C5E0"/>
<stop offset="0.453125" stop-color="#29E8DC"/>
<stop offset="0.739583" stop-color="#397AC7"/>
<stop offset="1" stop-color="#DE87EC"/>
</linearGradient>
<linearGradient id="paint17_linear_1355_540" x1="239.038" y1="865.951" x2="877.908" y2="865.952" gradientUnits="userSpaceOnUse">
<stop stop-color="#CA6CD9"/>
<stop offset="0.203125" stop-color="#00C5E0"/>
<stop offset="0.453125" stop-color="#29E8DC"/>
<stop offset="0.739583" stop-color="#397AC7"/>
<stop offset="1" stop-color="#DE87EC"/>
</linearGradient>
<linearGradient id="paint18_linear_1355_540" x1="239.038" y1="865.951" x2="877.908" y2="865.952" gradientUnits="userSpaceOnUse">
<stop stop-color="#CA6CD9"/>
<stop offset="0.203125" stop-color="#00C5E0"/>
<stop offset="0.453125" stop-color="#29E8DC"/>
<stop offset="0.739583" stop-color="#397AC7"/>
<stop offset="1" stop-color="#DE87EC"/>
</linearGradient>
<linearGradient id="paint19_linear_1355_540" x1="239.038" y1="865.951" x2="877.908" y2="865.952" gradientUnits="userSpaceOnUse">
<stop stop-color="#CA6CD9"/>
<stop offset="0.203125" stop-color="#00C5E0"/>
<stop offset="0.453125" stop-color="#29E8DC"/>
<stop offset="0.739583" stop-color="#397AC7"/>
<stop offset="1" stop-color="#DE87EC"/>
</linearGradient>
<linearGradient id="paint20_linear_1355_540" x1="239.038" y1="865.951" x2="877.908" y2="865.952" gradientUnits="userSpaceOnUse">
<stop stop-color="#CA6CD9"/>
<stop offset="0.203125" stop-color="#00C5E0"/>
<stop offset="0.453125" stop-color="#29E8DC"/>
<stop offset="0.739583" stop-color="#397AC7"/>
<stop offset="1" stop-color="#DE87EC"/>
</linearGradient>
</defs>
</svg>
